<svg width="164" height="57" viewBox="0 0 164 57" fill="none" xmlns="http://www.w3.org/2000/svg">
<path d="M23.0977 1.25104H28.4969C31.4167 1.25104 33.5182 1.51728 34.8075 2.05562C36.097 2.59419 37.1199 3.46685 37.8637 4.66752C38.6077 5.86818 38.9796 7.3103 38.9796 8.99362C38.9796 10.8566 38.4898 12.4038 37.5103 13.6356C36.5371 14.8671 35.2105 15.7274 33.5306 16.21C32.545 16.4887 30.7533 16.6248 28.156 16.6248V27.9137H23.0977V1.25104ZM28.156 11.686H29.7864C31.0694 11.686 31.9559 11.5931 32.4581 11.4137C32.9602 11.2279 33.3509 10.9308 33.6422 10.5099C33.9273 10.089 34.0698 9.58155 34.0698 8.98122C34.0698 7.94759 33.667 7.19261 32.8611 6.72237C32.2783 6.36956 31.1873 6.18987 29.6004 6.18987H28.156V11.686ZM42.2525 8.19536H46.5297V10.7017C46.9886 9.72403 47.5959 8.98122 48.3524 8.47376C49.1149 7.96631 49.9454 7.71247 50.8443 7.71247C51.4828 7.71247 52.1523 7.87951 52.8527 8.21992L51.3155 12.4906C50.7391 12.1995 50.2617 12.0573 49.8896 12.0573C49.1334 12.0573 48.4888 12.5275 47.9681 13.4683C47.4411 14.409 47.1807 16.2535 47.1807 19.0014L47.1992 19.9608V27.9137H42.2525V8.19536ZM64.5937 7.71247C66.4597 7.71247 68.2139 8.17664 69.8566 9.10498C71.5056 10.0333 72.7827 11.2899 73.7062 12.8803C74.63 14.4771 75.0888 16.1915 75.0888 18.0358C75.0888 19.8927 74.6239 21.6257 73.7001 23.2409C72.7703 24.8564 71.5056 26.1188 69.9063 27.0287C68.3009 27.9385 66.5403 28.3964 64.6122 28.3964C61.7731 28.3964 59.3494 27.3939 57.347 25.3886C55.3385 23.3771 54.3344 20.9385 54.3344 18.073C54.3344 14.9972 55.4688 12.4349 57.7376 10.3861C59.7276 8.60385 62.0088 7.71247 64.5937 7.71247ZM64.6683 12.3544C63.1245 12.3544 61.8413 12.8867 60.8186 13.9512C59.7958 15.0218 59.2812 16.3834 59.2812 18.0482C59.2812 19.7566 59.7895 21.1428 60.7999 22.2012C61.8103 23.2596 63.0935 23.7919 64.6495 23.7919C66.1994 23.7919 67.4887 23.2533 68.524 22.1827C69.5529 21.1119 70.0675 19.7318 70.0675 18.0482C70.0675 16.3586 69.5592 14.9909 68.5488 13.9324C67.5384 12.8803 66.2427 12.3544 64.6683 12.3544Z" fill="white"/>
<path d="M77.2151 3.85076V1.25126H91.8323V3.85076H85.8812V27.9139H83.166V3.85076H77.2151ZM94.9505 8.19558H97.4797V17.3988C97.4797 19.6452 97.6037 21.1865 97.8455 22.0344C98.205 23.2411 98.9054 24.1943 99.9282 24.8936C100.951 25.5931 102.179 25.9459 103.598 25.9459C105.018 25.9459 106.22 25.6055 107.212 24.9247C108.198 24.2375 108.886 23.3464 109.258 22.2323C109.512 21.471 109.642 19.8618 109.642 17.3988V8.19558H112.246V17.8629C112.246 20.5799 111.93 22.6223 111.291 23.9963C110.659 25.3765 109.698 26.4534 108.421 27.2271C107.144 28.0068 105.544 28.3966 103.617 28.3966C101.689 28.3966 100.083 28.0068 98.7938 27.2271C97.5045 26.4534 96.5374 25.364 95.905 23.9715C95.2667 22.579 94.9505 20.4809 94.9505 17.6835V8.19558ZM120.088 0.842773H122.617V8.19558H126.634V10.3863H122.617V27.9139H120.088V10.3863H116.628V8.19558H120.088V0.842773ZM139.862 7.71269C142.906 7.71269 145.435 8.80832 147.438 11.0054C149.26 13.0043 150.171 15.3748 150.171 18.1104C150.171 20.8583 149.211 23.2598 147.283 25.3144C145.361 27.3693 142.881 28.3966 139.862 28.3966C136.825 28.3966 134.339 27.3693 132.418 25.3144C130.49 23.2598 129.529 20.8583 129.529 18.1104C129.529 15.3872 130.44 13.0231 132.262 11.0239C134.265 8.8144 136.8 7.71269 139.862 7.71269ZM139.85 10.2008C137.736 10.2008 135.926 10.9743 134.407 12.5278C132.889 14.0812 132.132 15.9627 132.132 18.1661C132.132 19.5834 132.479 20.9079 133.168 22.1394C133.862 23.3649 134.798 24.3119 135.976 24.9804C137.147 25.6488 138.443 25.9829 139.85 25.9829C141.257 25.9829 142.553 25.6488 143.725 24.9804C144.902 24.3119 145.838 23.3649 146.533 22.1394C147.221 20.9079 147.568 19.5834 147.568 18.1661C147.568 15.9627 146.805 14.0812 145.281 12.5278C143.762 10.9743 141.952 10.2008 139.85 10.2008ZM153.885 8.19558H156.488V11.0796C157.263 9.9409 158.082 9.09912 158.943 8.54207C159.805 7.99134 160.704 7.71269 161.634 7.71269C162.34 7.71269 163.09 7.93541 163.89 8.3811L162.563 10.5101C162.03 10.2813 161.584 10.1636 161.218 10.1636C160.369 10.1636 159.551 10.5101 158.763 11.2033C157.976 11.8965 157.375 12.9798 156.959 14.4404C156.643 15.5605 156.488 17.8318 156.488 21.2483V27.9139H153.885V8.19558Z" fill="#FF6600"/>
<path d="M73.4153 39.0902C73.2509 38.5519 72.9287 38.1123 72.4482 37.775C71.9646 37.4378 71.4066 37.2705 70.7681 37.2705C70.0769 37.2705 69.4724 37.4594 68.9486 37.8399C68.623 38.0753 68.3193 38.493 68.0402 39.0902H73.4153ZM75.8797 41.0215H67.9286C68.0433 41.724 68.3502 42.2842 68.8463 42.7019C69.3421 43.1167 69.9775 43.3241 70.7464 43.3241C71.6701 43.3241 72.4606 42.9991 73.124 42.3491L75.2007 43.3302C74.6832 44.0667 74.06 44.6116 73.3379 44.9673C72.6124 45.3202 71.7539 45.4967 70.7588 45.4967C69.215 45.4967 67.9566 45.0106 66.9864 44.0358C66.0161 43.064 65.5293 41.8448 65.5293 40.3808C65.5293 38.8799 66.0161 37.6328 66.9864 36.6424C67.9566 35.6489 69.1717 35.1536 70.638 35.1536C72.1908 35.1536 73.4555 35.6489 74.4289 36.6361C75.4023 37.6264 75.8889 38.9295 75.8889 40.5542L75.8797 41.0215Z" fill="white"/>
<path d="M54.832 35.3951H57.3057V36.4102C57.8668 35.9397 58.3782 35.6149 58.8339 35.4291C59.2895 35.2465 59.7576 35.1536 60.2349 35.1536C61.2144 35.1536 62.0483 35.494 62.7302 36.1751C63.3038 36.7567 63.5921 37.614 63.5921 38.7469V45.2552H61.137V40.9442C61.137 39.7681 61.0842 38.9881 60.9789 38.6044C60.8735 38.2175 60.6874 37.9236 60.4271 37.7225C60.1636 37.5212 59.8382 37.419 59.4537 37.419C58.9515 37.419 58.5207 37.5863 58.1612 37.9204C57.8015 38.2547 57.5536 38.7189 57.414 39.3068C57.3429 39.6164 57.3057 40.2819 57.3057 41.3063V45.2552H54.832V35.3951Z" fill="white"/>
<path d="M50.1143 35.3953H52.5879V45.2554H50.1143V35.3953Z" fill="white"/>
<path d="M51.3572 31.3472C51.7909 31.3472 52.163 31.505 52.4731 31.8175C52.786 32.1302 52.9412 32.5078 52.9412 32.9535C52.9412 33.3928 52.786 33.7673 52.4792 34.0768C52.1723 34.3863 51.8033 34.541 51.3725 34.541C50.9324 34.541 50.5574 34.3832 50.2474 34.0676C49.9342 33.7517 49.7793 33.368 49.7793 32.9163C49.7793 32.483 49.9342 32.1146 50.241 31.8082C50.5481 31.5019 50.92 31.3472 51.3572 31.3472Z" fill="white"/>
<path d="M45.6567 31.5884H48.1304V45.2553H45.6567V31.5884Z" fill="white"/>
<path d="M34.7546 35.3951H37.2283V36.4102C37.7894 35.9397 38.3008 35.6149 38.7565 35.4291C39.2121 35.2465 39.6802 35.1536 40.1575 35.1536C41.1371 35.1536 41.9709 35.494 42.6528 36.1751C43.2264 36.7567 43.5147 37.614 43.5147 38.7469V45.2552H41.0596V40.9442C41.0596 39.7681 41.0068 38.9881 40.9016 38.6044C40.7961 38.2175 40.61 37.9236 40.3497 37.7225C40.0862 37.5212 39.7608 37.419 39.3763 37.419C38.8741 37.419 38.4433 37.5863 38.0838 37.9204C37.7241 38.2547 37.4762 38.7189 37.3366 39.3068C37.2655 39.6164 37.2283 40.2819 37.2283 41.3063V45.2552H34.7546V35.3951Z" fill="white"/>
<path fill-rule="evenodd" clip-rule="evenodd" d="M25.6817 31.521C29.5915 31.521 32.7609 34.6853 32.7609 38.5888C32.7609 42.4923 29.5915 45.6567 25.6817 45.6567C21.772 45.6567 18.6025 42.4923 18.6025 38.5888C18.6025 34.6853 21.772 31.521 25.6817 31.521ZM25.6817 34.068C28.1826 34.068 30.2098 36.0919 30.2098 38.5888C30.2098 41.0857 28.1826 43.1097 25.6817 43.1097C23.1808 43.1097 21.1536 41.0857 21.1536 38.5888C21.1536 36.0919 23.1808 34.068 25.6817 34.068Z" fill="white"/>
<path d="M25.6602 41.1438C27.0617 41.1438 28.1979 40.0095 28.1979 38.6102C28.1979 37.2109 27.0617 36.0766 25.6602 36.0766C24.2587 36.0766 23.1226 37.2109 23.1226 38.6102C23.1226 40.0095 24.2587 41.1438 25.6602 41.1438Z" fill="#FF6600"/>
<path fill-rule="evenodd" clip-rule="evenodd" d="M7.64249 56.8373C2.9249 52.188 0 45.73 0 38.589C0 31.5253 2.86109 25.129 7.4893 20.4917L11.9507 24.7359C8.3753 28.2683 6.15983 33.1699 6.15983 38.589C6.15983 44.0851 8.43935 49.0492 12.1049 52.5924L7.64249 56.8373ZM21.1328 44.0041C19.5861 42.7077 18.6025 40.7632 18.6025 38.589C18.6025 36.4923 19.5172 34.6091 20.9694 33.3149L22.8259 35.0808C21.8055 35.9097 21.1535 37.1731 21.1535 38.589C21.1535 40.0829 21.8793 41.4071 22.9979 42.2301L21.1328 44.0041ZM14.6106 50.2086C11.5355 47.2871 9.61881 43.1616 9.61881 38.589C9.61881 34.0937 11.4721 30.0311 14.4565 27.1192L18.4926 30.9588C16.4591 32.8694 15.1888 35.5808 15.1888 38.589C15.1888 41.6745 16.5248 44.4481 18.6507 46.3654L14.6106 50.2086Z" fill="#FF6600"/>
</svg>
