<svg width="17" height="16" viewBox="0 0 17 16" fill="none" xmlns="http://www.w3.org/2000/svg">
<path fill-rule="evenodd" clip-rule="evenodd" d="M5.69313 0.596191C6.0805 0.596191 6.39461 0.911139 6.39461 1.29851V1.99998H10.6051V1.29851C10.6051 1.11235 10.6791 0.933823 10.8107 0.802193C10.9423 0.670562 11.1209 0.596612 11.307 0.596612C11.4932 0.596612 11.6717 0.670562 11.8033 0.802193C11.935 0.933823 12.0089 1.11235 12.0089 1.29851V2.07072C12.8013 2.23274 13.5133 2.66341 14.0248 3.28991C14.5362 3.91641 14.8156 4.7003 14.8157 5.50903V11.8248C14.8157 12.7555 14.446 13.648 13.7879 14.3061C13.1298 14.9642 12.2373 15.3339 11.3066 15.3339H5.69313C4.76248 15.3339 3.86993 14.9642 3.21186 14.3061C2.55378 13.648 2.18408 12.7555 2.18408 11.8248V5.50903C2.18418 4.7003 2.46356 3.91641 2.97498 3.28991C3.4864 2.66341 4.19848 2.23274 4.99082 2.07072V1.29851C4.99082 0.911139 5.30492 0.596191 5.69313 0.596191ZM11.3066 3.40377H5.69313C5.13478 3.40377 4.5993 3.62557 4.20449 4.02039C3.80968 4.4152 3.58787 4.95068 3.58787 5.50903H13.4119C13.4119 5.23257 13.3574 4.95881 13.2516 4.70338C13.1458 4.44796 12.9907 4.21588 12.7953 4.02039C12.5998 3.8249 12.3677 3.66982 12.1123 3.56402C11.8568 3.45822 11.5831 3.40377 11.3066 3.40377ZM13.4119 6.91282V11.8248C13.4119 12.1013 13.3574 12.375 13.2516 12.6305C13.1458 12.8859 12.9907 13.118 12.7953 13.3135C12.5998 13.509 12.3677 13.664 12.1123 13.7698C11.8568 13.8756 11.5831 13.9301 11.3066 13.9301H5.69313C5.13478 13.9301 4.5993 13.7083 4.20449 13.3135C3.80968 12.9187 3.58787 12.3832 3.58787 11.8248V6.91282H13.4119Z" fill="#FF6C0B"/>
</svg>
