<svg width="17" height="16" viewBox="0 0 17 16" fill="none" xmlns="http://www.w3.org/2000/svg">
<path fill-rule="evenodd" clip-rule="evenodd" d="M8.17621 2.04399C8.27531 1.98888 8.38682 1.95996 8.50021 1.95996C8.6136 1.95996 8.72512 1.98888 8.82421 2.04399L14.8122 5.37066C14.9191 5.4276 15.0086 5.51249 15.071 5.61628C15.1335 5.72007 15.1666 5.83886 15.1669 5.95999V9.95999C15.1669 10.1368 15.0966 10.3064 14.9716 10.4314C14.8466 10.5564 14.677 10.6267 14.5002 10.6267C14.3234 10.6267 14.1538 10.5564 14.0288 10.4314C13.9038 10.3064 13.8335 10.1368 13.8335 9.95999V7.09332L8.82421 9.87599C8.72512 9.9311 8.6136 9.96002 8.50021 9.96002C8.38682 9.96002 8.27531 9.9311 8.17621 9.87599L2.17621 6.54266C2.07233 6.4849 1.98578 6.40043 1.92553 6.29798C1.86527 6.19553 1.8335 6.07884 1.8335 5.95999C1.8335 5.84114 1.86527 5.72444 1.92553 5.622C1.98578 5.51955 2.07233 5.43508 2.17621 5.37732L8.17621 2.04399ZM3.87355 5.95999L8.50021 8.53065L13.1269 5.95999L8.50021 3.38932L3.87355 5.95999ZM5.83421 10.6267C5.83421 10.4498 5.76397 10.2803 5.63895 10.1553C5.51393 10.0302 5.34436 9.95999 5.16755 9.95999C4.99073 9.95999 4.82117 10.0302 4.69614 10.1553C4.57112 10.2803 4.50088 10.4498 4.50088 10.6267V11.2933C4.50088 11.8186 4.60434 12.3388 4.80536 12.8241C5.00638 13.3094 5.30102 13.7503 5.67245 14.1217C6.04389 14.4932 6.48484 14.7878 6.97014 14.9888C7.45545 15.1899 7.97559 15.2933 8.50088 15.2933C9.02617 15.2933 9.54631 15.1899 10.0316 14.9888C10.5169 14.7878 10.9579 14.4932 11.3293 14.1217C11.7007 13.7503 11.9954 13.3094 12.1964 12.8241C12.3974 12.3388 12.5009 11.8186 12.5009 11.2933V10.6267C12.5009 10.4498 12.4306 10.2803 12.3056 10.1553C12.1806 10.0302 12.011 9.95999 11.8342 9.95999C11.6574 9.95999 11.4878 10.0302 11.3628 10.1553C11.2378 10.2803 11.1675 10.4498 11.1675 10.6267V11.2933C11.1675 12.0006 10.8866 12.6788 10.3865 13.1789C9.8864 13.679 9.20812 13.96 8.50088 13.96C7.79363 13.96 7.11536 13.679 6.61526 13.1789C6.11516 12.6788 5.83421 12.0006 5.83421 11.2933V10.6267Z" fill="#FF6C0B"/>
</svg>
