<svg width="17" height="16" viewBox="0 0 17 16" fill="none" xmlns="http://www.w3.org/2000/svg">
<path fill-rule="evenodd" clip-rule="evenodd" d="M13.1667 2.66669C13.5203 2.66669 13.8594 2.80716 14.1095 3.05721C14.3595 3.30726 14.5 3.6464 14.5 4.00002V12C14.5 12.3536 14.3595 12.6928 14.1095 12.9428C13.8594 13.1929 13.5203 13.3334 13.1667 13.3334C12.813 13.3334 12.4739 13.1929 12.2239 12.9428C11.9738 12.6928 11.8333 12.3536 11.8333 12V4.00002C11.8333 3.6464 11.9738 3.30726 12.2239 3.05721C12.4739 2.80716 12.813 2.66669 13.1667 2.66669ZM8.5 5.33335C8.85362 5.33335 9.19276 5.47383 9.44281 5.72388C9.69286 5.97393 9.83333 6.31307 9.83333 6.66669V12C9.83333 12.3536 9.69286 12.6928 9.44281 12.9428C9.19276 13.1929 8.85362 13.3334 8.5 13.3334C8.14638 13.3334 7.80724 13.1929 7.55719 12.9428C7.30714 12.6928 7.16667 12.3536 7.16667 12V6.66669C7.16667 6.31307 7.30714 5.97393 7.55719 5.72388C7.80724 5.47383 8.14638 5.33335 8.5 5.33335ZM5.16667 10C5.16667 9.6464 5.02619 9.30726 4.77614 9.05721C4.52609 8.80716 4.18696 8.66669 3.83333 8.66669C3.47971 8.66669 3.14057 8.80716 2.89052 9.05721C2.64048 9.30726 2.5 9.6464 2.5 10V12C2.5 12.3536 2.64048 12.6928 2.89052 12.9428C3.14057 13.1929 3.47971 13.3334 3.83333 13.3334C4.18696 13.3334 4.52609 13.1929 4.77614 12.9428C5.02619 12.6928 5.16667 12.3536 5.16667 12V10Z" fill="#FF6C0B"/>
</svg>
