<svg width="17" height="18" viewBox="0 0 17 18" fill="none" xmlns="http://www.w3.org/2000/svg">
<path fill-rule="evenodd" clip-rule="evenodd" d="M8.50016 14.074C7.08567 14.074 5.72912 13.5121 4.72893 12.5119C3.72873 11.5117 3.16683 10.1552 3.16683 8.7407C3.16683 7.32621 3.72873 5.96966 4.72893 4.96947C5.72912 3.96927 7.08567 3.40737 8.50016 3.40737C9.91465 3.40737 11.2712 3.96927 12.2714 4.96947C13.2716 5.96966 13.8335 7.32621 13.8335 8.7407C13.8335 10.1552 13.2716 11.5117 12.2714 12.5119C11.2712 13.5121 9.91465 14.074 8.50016 14.074ZM1.8335 8.7407C1.8335 5.0587 4.81816 2.07404 8.50016 2.07404C12.1822 2.07404 15.1668 5.0587 15.1668 8.7407C15.1668 12.4227 12.1822 15.4074 8.50016 15.4074C4.81816 15.4074 1.8335 12.4227 1.8335 8.7407ZM8.7395 12.5874C8.7395 12.7474 8.6415 12.8407 8.4955 12.8407C8.34883 12.8407 8.25083 12.7474 8.25083 12.5874V11.9914C6.99616 11.9327 6.1855 11.3514 5.94616 10.638C5.90996 10.5397 5.89036 10.4361 5.88816 10.3314C5.88816 9.97937 6.12683 9.74004 6.5275 9.74004C6.83016 9.74004 7.0355 9.8967 7.17216 10.18C7.32816 10.56 7.63616 10.8387 8.2515 10.8927V9.11537L7.8895 9.03204C6.61083 8.74404 5.91216 8.1727 5.91216 7.11804C5.91216 5.94137 6.88883 5.17937 8.25083 5.11137V4.50004C8.25083 4.33937 8.34883 4.2467 8.4955 4.2467C8.64216 4.2467 8.7395 4.33937 8.7395 4.50004V5.1107C9.9015 5.1887 10.7068 5.76004 10.9415 6.51203C10.9708 6.60937 10.9902 6.70737 10.9902 6.81004C10.9902 7.13204 10.7462 7.34203 10.3755 7.34203C10.0722 7.34203 9.86216 7.2007 9.70616 6.91737C9.5155 6.51737 9.20816 6.27737 8.7395 6.21404V7.93337L9.12016 8.0167C10.4582 8.31937 11.1562 8.8567 11.1562 9.92603C11.1562 11.1614 10.1455 11.908 8.7395 11.9914V12.5867V12.5874ZM8.2515 6.21003C7.6115 6.2687 7.2795 6.59537 7.2795 6.99137C7.2795 7.3867 7.5675 7.64537 8.25083 7.82137L8.2515 6.21003ZM8.7395 10.8927C9.44283 10.8394 9.79416 10.526 9.79416 10.0774C9.79416 9.6427 9.52083 9.4227 8.7395 9.22737V10.8927Z" fill="#FF6C0B"/>
</svg>
