<svg width="31" height="31" viewBox="0 0 31 31" fill="none" xmlns="http://www.w3.org/2000/svg">
<circle cx="15.25" cy="15.25" r="15" fill="#F7F2E4"/>
<path d="M14.8738 7.19649C14.9328 7.10458 15.0672 7.10458 15.1262 7.19649L17.6957 11.197C17.7161 11.2286 17.7475 11.2515 17.7839 11.261L22.3826 12.4686C22.4882 12.4963 22.5297 12.6241 22.4606 12.7086L19.4499 16.3886C19.4261 16.4177 19.4141 16.4547 19.4163 16.4922L19.6889 21.239C19.6952 21.348 19.5865 21.427 19.4847 21.3874L15.0545 19.6612C15.0194 19.6476 14.9806 19.6476 14.9455 19.6612L10.5153 21.3874C10.4135 21.427 10.3048 21.348 10.3111 21.239L10.5837 16.4922C10.5859 16.4547 10.5739 16.4177 10.5501 16.3886L7.53942 12.7086C7.47025 12.6241 7.51177 12.4963 7.61742 12.4686L12.2161 11.261C12.2525 11.2515 12.2839 11.2286 12.3043 11.197L14.8738 7.19649Z" fill="#FFC72C"/>
</svg>
