<svg width="106" height="80" viewBox="0 0 106 80" fill="none" xmlns="http://www.w3.org/2000/svg">
<g clip-path="url(#clip0_99_458)">
<path d="M86.3788 20.7737C87.0513 20.7737 87.5 21.1825 87.5 21.7963V65.235C87.5 65.8488 87.0525 66.2575 86.3788 66.2575H14.63C13.9575 66.2575 13.5087 65.8488 13.5087 65.235V21.7975C13.5087 21.1825 13.9587 20.7725 14.63 20.7725H86.38L86.3788 20.7737ZM86.3788 17.5H14.63C12.1637 17.5 10.1462 19.3413 10.1462 21.5913V65.03C10.1462 67.28 12.1637 69.1225 14.63 69.1225H86.38C88.845 69.1225 90.8638 67.2812 90.8638 65.03V21.5925C90.8638 19.3425 88.845 17.5 86.3788 17.5ZM98.7063 80.4212H2.29375C1.39625 80.4212 0.5 79.8075 0.5 78.7838C0.5 77.7612 1.1725 77.1462 2.29375 77.1462H98.7063C99.6038 77.1462 100.5 77.7612 100.5 78.7838C100.5 79.8075 99.6025 80.4212 98.7063 80.4212Z" fill="#FF6C0B"/>
<path d="M88 51.25C101.807 51.25 113 35.58 113 16.25C113 -3.07997 101.807 -18.75 88 -18.75C74.1929 -18.75 63 -3.07997 63 16.25C63 35.58 74.1929 51.25 88 51.25Z" fill="white"/>
<path d="M73.9375 16.2413V16.2488C73.9375 22.5413 76.6987 28.0238 79.8875 32.3101C82.935 36.4101 86.3937 39.4426 88.2487 41.0688L88.4925 41.2826L88.4975 41.2863C88.7075 41.4644 88.974 41.5622 89.2494 41.5622C89.5248 41.5622 89.7912 41.4644 90.0012 41.2863L90.005 41.2826L90.25 41.0688C92.105 39.4426 95.5625 36.4101 98.6125 32.3101C101.8 28.0226 104.561 22.5413 104.561 16.2488V16.2413C104.458 12.2151 102.812 8.38235 99.9643 5.53445C97.1165 2.68656 93.2837 1.041 89.2575 0.937554L88.9363 0.930054V0.948804C84.9656 1.12804 81.2103 2.80548 78.4272 5.64317C75.644 8.48085 74.0397 12.2679 73.9375 16.2413ZM89.25 38.9001C83.405 33.7851 76.2325 26.1001 76.2288 16.2551C76.3554 12.8416 77.7678 9.60231 80.1827 7.18666C82.5977 4.77101 85.8366 3.35766 89.25 3.23005C92.6633 3.35795 95.902 4.77139 98.3169 7.18698C100.732 9.60257 102.144 12.8417 102.271 16.2551C102.267 26.1013 95.0963 33.7851 89.25 38.9001Z" fill="#FF6C0B" stroke="#FF6C0B" stroke-width="0.5"/>
<path d="M89.25 8.4375C87.178 8.4375 85.1909 9.2606 83.7257 10.7257C82.2606 12.1909 81.4375 14.178 81.4375 16.25C81.4375 18.322 82.2606 20.3091 83.7257 21.7743C85.1909 23.2394 87.178 24.0625 89.25 24.0625C91.322 24.0625 93.3091 23.2394 94.7743 21.7743C96.2394 20.3091 97.0625 18.322 97.0625 16.25C97.0625 14.178 96.2394 12.1909 94.7743 10.7257C93.3091 9.2606 91.322 8.4375 89.25 8.4375ZM89.25 21.9375C88.5031 21.9375 87.7635 21.7904 87.0735 21.5046C86.3834 21.2187 85.7565 20.7998 85.2283 20.2717C84.7002 19.7435 84.2813 19.1166 83.9954 18.4265C83.7096 17.7365 83.5625 16.9969 83.5625 16.25C83.5625 15.5031 83.7096 14.7635 83.9954 14.0735C84.2813 13.3834 84.7002 12.7565 85.2283 12.2283C85.7565 11.7002 86.3834 11.2813 87.0735 10.9954C87.7635 10.7096 88.5031 10.5625 89.25 10.5625C90.7584 10.5625 92.2051 11.1617 93.2717 12.2283C94.3383 13.2949 94.9375 14.7416 94.9375 16.25C94.9375 17.7584 94.3383 19.2051 93.2717 20.2717C92.2051 21.3383 90.7584 21.9375 89.25 21.9375Z" fill="#FF6C0B" stroke="#FF6C0B" stroke-width="0.5"/>
</g>
<defs>
<clipPath id="clip0_99_458">
<rect width="105" height="80" fill="white" transform="translate(0.5)"/>
</clipPath>
</defs>
</svg>
