<svg width="74" height="80" viewBox="0 0 74 80" fill="none" xmlns="http://www.w3.org/2000/svg">
<g clip-path="url(#clip0_99_454)">
<path d="M55.1188 28.33C55.1188 18.205 46.9113 9.99878 36.7863 9.99878C26.6613 9.99878 18.4551 18.2063 18.4551 28.33C18.4551 38.455 26.6626 46.6613 36.7863 46.6613C46.9063 46.65 55.1063 38.4488 55.1188 28.33ZM21.7888 28.33C21.7888 20.0463 28.5038 13.3313 36.7863 13.3313C45.0701 13.3313 51.7863 20.0463 51.7863 28.33C51.7863 36.6138 45.0701 43.3288 36.7863 43.3288C28.5076 43.32 21.7976 36.61 21.7888 28.33Z" fill="#FF6C0B"/>
<path d="M45.1216 28.3313C45.1216 27.7738 44.8428 27.2525 44.3791 26.9438L34.3791 20.2775C34.1281 20.1103 33.8364 20.0144 33.5351 20C33.2339 19.9855 32.9343 20.0531 32.6685 20.1955C32.4026 20.338 32.1804 20.5499 32.0255 20.8087C31.8707 21.0675 31.7889 21.3634 31.7891 21.665V34.9963C31.7888 35.2981 31.8705 35.5943 32.0254 35.8533C32.1803 36.1123 32.4027 36.3243 32.6688 36.4668C32.9348 36.6093 33.2346 36.6768 33.536 36.6622C33.8375 36.6476 34.1293 36.5513 34.3803 36.3838L44.3791 29.7175C44.8416 29.4075 45.1216 28.8875 45.1216 28.33V28.3313ZM35.1216 31.8838V24.7775L40.4503 28.3313L35.1216 31.8838Z" fill="#FF6C0B"/>
<path d="M73.4512 53.3287V5C73.4499 3.67432 72.9227 2.40332 71.9853 1.46593C71.0479 0.528533 69.7769 0.00132369 68.4512 0L5.125 0C3.79932 0.00132369 2.52832 0.528533 1.59093 1.46593C0.653533 2.40332 0.126324 3.67432 0.125 5L0.125 53.3287C0.126324 54.6544 0.653533 55.9254 1.59093 56.8628C2.52832 57.8002 3.79932 58.3274 5.125 58.3287H32.9813L15.5662 77.1937C15.2662 77.5183 15.1074 77.9488 15.1248 78.3904C15.1421 78.8321 15.3342 79.2487 15.6588 79.5488C15.9833 79.8488 16.4138 80.0076 16.8554 79.9902C17.2971 79.9729 17.7137 79.7808 18.0138 79.4562L35.1213 60.9225V78.325C35.1213 78.7671 35.2969 79.1911 35.6095 79.5037C35.9221 79.8163 36.346 79.9919 36.7881 79.9919C37.2302 79.9919 37.6542 79.8163 37.9668 79.5037C38.2794 79.1911 38.455 78.7671 38.455 78.325V60.9237L55.5625 79.4575C55.8625 79.7821 56.2792 79.9741 56.7208 79.9915C57.1625 80.0088 57.5929 79.85 57.9175 79.55C58.2421 79.25 58.4341 78.8333 58.4515 78.3917C58.4688 77.95 58.31 77.5196 58.01 77.195L40.595 58.3275H68.45C69.7757 58.3262 71.0467 57.799 71.9841 56.8616C72.9215 55.9242 73.4487 54.6532 73.45 53.3275L73.4512 53.3287ZM3.4575 53.3287V5C3.4575 4.08 4.205 3.33375 5.125 3.3325H68.45C69.37 3.3325 70.1162 4.08 70.1175 5V53.3287C70.1175 54.2487 69.3712 54.9937 68.45 54.995H5.125C4.68297 54.995 4.25902 54.8195 3.94634 54.507C3.63366 54.1946 3.45783 53.7708 3.4575 53.3287Z" fill="#FF6C0B"/>
</g>
<defs>
<clipPath id="clip0_99_454">
<rect width="73.75" height="80" fill="white" transform="translate(0.125)"/>
</clipPath>
</defs>
</svg>
