<svg width="81" height="80" viewBox="0 0 81 80" fill="none" xmlns="http://www.w3.org/2000/svg">
<path fill-rule="evenodd" clip-rule="evenodd" d="M40.5 2.5C56.6656 2.5 69.7703 15.6048 69.7703 31.7703C69.7703 47.9358 56.6656 61.0406 40.5 61.0406C24.3344 61.0406 11.2297 47.9358 11.2297 31.7703C11.2297 15.6048 24.3344 2.5 40.5 2.5ZM62.4748 54.715C58.4097 58.6094 53.3116 61.4341 47.6327 62.7367L52.6347 74.3502L58.0352 65.6477L68.0686 67.7025L62.4748 54.715ZM34.895 63.0478C29.1592 62.0269 23.9561 59.4669 19.7278 55.81L12.9316 70.4077L23.0208 68.6448L28.1666 77.5L34.895 63.0478ZM40.9953 21.4636C40.8234 21.0108 40.1767 21.0108 40.0048 21.4636L37.462 28.1611C37.3856 28.3623 37.2077 28.4917 36.9925 28.5022L29.837 28.8509C29.3503 28.8745 29.1511 29.4877 29.5309 29.793L35.1148 34.2811C35.2827 34.4159 35.3506 34.6252 35.2942 34.833L33.4147 41.7461C33.2869 42.2162 33.8083 42.5952 34.2159 42.3283L40.2098 38.4045C40.39 38.2866 40.61 38.2866 40.79 38.4045L46.7841 42.3283C47.1917 42.5952 47.7133 42.2162 47.5853 41.7461L45.7058 34.8331C45.6492 34.6253 45.7172 34.4161 45.885 34.2812L51.4691 29.7931C51.8488 29.4878 51.6495 28.8748 51.163 28.8511L44.0075 28.5023C43.7923 28.4919 43.6145 28.3625 43.538 28.1612L40.9953 21.4636ZM43.2663 11.075C41.6009 9.82844 39.3991 9.82844 37.7338 11.075C33.3983 14.3203 34.3814 13.9623 28.9742 14.2631C26.8973 14.3786 25.2105 15.7941 24.7361 17.8194C23.5009 23.0922 24.0241 22.1859 20.0753 25.8922C18.5586 27.3158 18.1763 29.4842 19.1147 31.3406C21.5578 36.1738 21.3761 35.1434 20.7334 40.5206C20.4866 42.5861 21.5877 44.493 23.4997 45.3119C28.478 47.4439 27.6764 46.7712 30.6405 51.3037C31.7789 53.0447 33.8481 53.7977 35.8394 53.1959C41.0233 51.6292 39.977 51.6292 45.1611 53.1959C47.1522 53.7977 49.2214 53.0445 50.3598 51.3037C53.3239 46.7714 52.5225 47.4439 57.5006 45.3119C59.4128 44.493 60.5138 42.5861 60.2669 40.5206C59.6242 35.1433 59.4425 36.1738 61.8856 31.3406C62.8239 29.4842 62.4416 27.3158 60.925 25.8922C56.9761 22.1861 57.4994 23.0922 56.2642 17.8194C55.7898 15.7941 54.103 14.3787 52.0261 14.2631C46.6186 13.9623 47.6017 14.3202 43.2663 11.075Z" fill="#FF6C0B"/>
</svg>
