<svg width="50" height="50" viewBox="0 0 50 50" fill="none" xmlns="http://www.w3.org/2000/svg">
<circle cx="25" cy="25" r="24" fill="white" fill-opacity="0.2"/>
<circle cx="25" cy="25" r="24.5" stroke="#FF6C0B" stroke-opacity="0.2"/>
<path d="M25 40C33.2842 40 40 33.2842 40 25C40 16.7157 33.2842 10 25 10C16.7157 10 10 16.7157 10 25C10 33.2842 16.7157 40 25 40Z" fill="#1977F3"/>
<path d="M30.8386 29.337L31.5031 25H27.3434V22.1861C27.3434 21.0006 27.9234 19.8425 29.7882 19.8425H31.6803V16.1511C31.6803 16.1511 29.9632 15.8578 28.3221 15.8578C24.8964 15.8578 22.6563 17.9335 22.6563 21.6946V25H18.8467V29.337H22.6563V39.8186C23.4199 39.9388 24.2025 40 24.9998 40C25.7972 40 26.5798 39.9367 27.3434 39.8186V29.337H30.8386Z" fill="white"/>
</svg>
