<svg width="24" height="24" viewBox="0 0 24 24" fill="none" xmlns="http://www.w3.org/2000/svg">
<g id="Icon" clip-path="url(#clip0_687_15)">
<path id="Vector" d="M12.0004 9.00049C11.2047 9.00049 10.4417 9.31656 9.87905 9.87917C9.31644 10.4418 9.00037 11.2048 9.00037 12.0005C9.00037 12.7961 9.31644 13.5592 9.87905 14.1218C10.4417 14.6844 11.2047 15.0005 12.0004 15.0005C12.796 15.0005 13.5591 14.6844 14.1217 14.1218C14.6843 13.5592 15.0004 12.7961 15.0004 12.0005C15.0004 11.2048 14.6843 10.4418 14.1217 9.87917C13.5591 9.31656 12.796 9.00049 12.0004 9.00049ZM12.0004 7.00049C13.3264 7.00049 14.5982 7.52727 15.5359 8.46495C16.4736 9.40264 17.0004 10.6744 17.0004 12.0005C17.0004 13.3266 16.4736 14.5983 15.5359 15.536C14.5982 16.4737 13.3264 17.0005 12.0004 17.0005C10.6743 17.0005 9.40251 16.4737 8.46483 15.536C7.52715 14.5983 7.00037 13.3266 7.00037 12.0005C7.00037 10.6744 7.52715 9.40264 8.46483 8.46495C9.40251 7.52727 10.6743 7.00049 12.0004 7.00049ZM18.5004 6.75049C18.5004 7.08201 18.3687 7.39995 18.1343 7.63437C17.8998 7.86879 17.5819 8.00049 17.2504 8.00049C16.9188 8.00049 16.6009 7.86879 16.3665 7.63437C16.1321 7.39995 16.0004 7.08201 16.0004 6.75049C16.0004 6.41897 16.1321 6.10103 16.3665 5.8666C16.6009 5.63218 16.9188 5.50049 17.2504 5.50049C17.5819 5.50049 17.8998 5.63218 18.1343 5.8666C18.3687 6.10103 18.5004 6.41897 18.5004 6.75049ZM12.0004 4.00049C9.52637 4.00049 9.12237 4.00749 7.97137 4.05849C7.18737 4.09549 6.66137 4.20049 6.17337 4.39049C5.73937 4.55849 5.42637 4.75949 5.09337 5.09349C4.78037 5.39589 4.53972 5.76507 4.38937 6.17349C4.19937 6.66349 4.09437 7.18849 4.05837 7.97149C4.00637 9.07549 4.00037 9.46149 4.00037 12.0005C4.00037 14.4745 4.00737 14.8785 4.05837 16.0295C4.09537 16.8125 4.20037 17.3395 4.38937 17.8265C4.55937 18.2615 4.75937 18.5745 5.09137 18.9065C5.42837 19.2425 5.74137 19.4435 6.17137 19.6095C6.66537 19.8005 7.19137 19.9065 7.97137 19.9425C9.07537 19.9945 9.46137 20.0005 12.0004 20.0005C14.4744 20.0005 14.8784 19.9935 16.0294 19.9425C16.8114 19.9055 17.3384 19.8005 17.8264 19.6115C18.2594 19.4425 18.5744 19.2415 18.9064 18.9095C19.2434 18.5725 19.4444 18.2595 19.6104 17.8295C19.8004 17.3365 19.9064 16.8095 19.9424 16.0295C19.9944 14.9255 20.0004 14.5395 20.0004 12.0005C20.0004 9.52649 19.9934 9.12249 19.9424 7.97149C19.9054 7.18949 19.8004 6.66149 19.6104 6.17349C19.4597 5.76549 19.2194 5.39645 18.9074 5.09349C18.6051 4.78033 18.2359 4.53965 17.8274 4.38949C17.3374 4.19949 16.8114 4.09449 16.0294 4.05849C14.9254 4.00649 14.5394 4.00049 12.0004 4.00049ZM12.0004 2.00049C14.7174 2.00049 15.0564 2.01049 16.1224 2.06049C17.1874 2.11049 17.9124 2.27749 18.5504 2.52549C19.2104 2.77949 19.7664 3.12349 20.3224 3.67849C20.8309 4.17838 21.2243 4.78308 21.4754 5.45049C21.7224 6.08749 21.8904 6.81349 21.9404 7.87849C21.9874 8.94449 22.0004 9.28349 22.0004 12.0005C22.0004 14.7175 21.9904 15.0565 21.9404 16.1225C21.8904 17.1875 21.7224 17.9125 21.4754 18.5505C21.225 19.2183 20.8315 19.8231 20.3224 20.3225C19.8223 20.8308 19.2177 21.2242 18.5504 21.4755C17.9134 21.7225 17.1874 21.8905 16.1224 21.9405C15.0564 21.9875 14.7174 22.0005 12.0004 22.0005C9.28337 22.0005 8.94437 21.9905 7.87837 21.9405C6.81337 21.8905 6.08837 21.7225 5.45037 21.4755C4.78269 21.225 4.17789 20.8314 3.67837 20.3225C3.16977 19.8227 2.7763 19.218 2.52537 18.5505C2.27737 17.9135 2.11037 17.1875 2.06037 16.1225C2.01337 15.0565 2.00037 14.7175 2.00037 12.0005C2.00037 9.28349 2.01037 8.94449 2.06037 7.87849C2.11037 6.81249 2.27737 6.08849 2.52537 5.45049C2.7756 4.78267 3.16917 4.17781 3.67837 3.67849C4.17804 3.16972 4.78279 2.77622 5.45037 2.52549C6.08837 2.27749 6.81237 2.11049 7.87837 2.06049C8.94437 2.01349 9.28337 2.00049 12.0004 2.00049Z" fill="#FF6C0B"/>
</g>
<defs>
<clipPath id="clip0_687_15">
<rect width="24" height="24" fill="white"/>
</clipPath>
</defs>
</svg>
