<svg width="24" height="24" viewBox="0 0 24 24" fill="none" xmlns="http://www.w3.org/2000/svg">
<g id="Icon" clip-path="url(#clip0_535_68)">
<path id="Vector" d="M12.0005 9.00049C11.2048 9.00049 10.4418 9.31656 9.87917 9.87917C9.31656 10.4418 9.00049 11.2048 9.00049 12.0005C9.00049 12.7961 9.31656 13.5592 9.87917 14.1218C10.4418 14.6844 11.2048 15.0005 12.0005 15.0005C12.7961 15.0005 13.5592 14.6844 14.1218 14.1218C14.6844 13.5592 15.0005 12.7961 15.0005 12.0005C15.0005 11.2048 14.6844 10.4418 14.1218 9.87917C13.5592 9.31656 12.7961 9.00049 12.0005 9.00049ZM12.0005 7.00049C13.3266 7.00049 14.5983 7.52727 15.536 8.46495C16.4737 9.40264 17.0005 10.6744 17.0005 12.0005C17.0005 13.3266 16.4737 14.5983 15.536 15.536C14.5983 16.4737 13.3266 17.0005 12.0005 17.0005C10.6744 17.0005 9.40264 16.4737 8.46495 15.536C7.52727 14.5983 7.00049 13.3266 7.00049 12.0005C7.00049 10.6744 7.52727 9.40264 8.46495 8.46495C9.40264 7.52727 10.6744 7.00049 12.0005 7.00049ZM18.5005 6.75049C18.5005 7.08201 18.3688 7.39995 18.1344 7.63437C17.9 7.86879 17.582 8.00049 17.2505 8.00049C16.919 8.00049 16.601 7.86879 16.3666 7.63437C16.1322 7.39995 16.0005 7.08201 16.0005 6.75049C16.0005 6.41897 16.1322 6.10103 16.3666 5.8666C16.601 5.63218 16.919 5.50049 17.2505 5.50049C17.582 5.50049 17.9 5.63218 18.1344 5.8666C18.3688 6.10103 18.5005 6.41897 18.5005 6.75049ZM12.0005 4.00049C9.52649 4.00049 9.12249 4.00749 7.97149 4.05849C7.18749 4.09549 6.66149 4.20049 6.17349 4.39049C5.73949 4.55849 5.42649 4.75949 5.09349 5.09349C4.7805 5.39589 4.53984 5.76507 4.38949 6.17349C4.19949 6.66349 4.09449 7.18849 4.05849 7.97149C4.00649 9.07549 4.00049 9.46149 4.00049 12.0005C4.00049 14.4745 4.00749 14.8785 4.05849 16.0295C4.09549 16.8125 4.20049 17.3395 4.38949 17.8265C4.55949 18.2615 4.75949 18.5745 5.09149 18.9065C5.42849 19.2425 5.74149 19.4435 6.17149 19.6095C6.66549 19.8005 7.19149 19.9065 7.97149 19.9425C9.07549 19.9945 9.46149 20.0005 12.0005 20.0005C14.4745 20.0005 14.8785 19.9935 16.0295 19.9425C16.8115 19.9055 17.3385 19.8005 17.8265 19.6115C18.2595 19.4425 18.5745 19.2415 18.9065 18.9095C19.2435 18.5725 19.4445 18.2595 19.6105 17.8295C19.8005 17.3365 19.9065 16.8095 19.9425 16.0295C19.9945 14.9255 20.0005 14.5395 20.0005 12.0005C20.0005 9.52649 19.9935 9.12249 19.9425 7.97149C19.9055 7.18949 19.8005 6.66149 19.6105 6.17349C19.4598 5.76549 19.2196 5.39645 18.9075 5.09349C18.6052 4.78033 18.236 4.53965 17.8275 4.38949C17.3375 4.19949 16.8115 4.09449 16.0295 4.05849C14.9255 4.00649 14.5395 4.00049 12.0005 4.00049ZM12.0005 2.00049C14.7175 2.00049 15.0565 2.01049 16.1225 2.06049C17.1875 2.11049 17.9125 2.27749 18.5505 2.52549C19.2105 2.77949 19.7665 3.12349 20.3225 3.67849C20.831 4.17838 21.2244 4.78308 21.4755 5.45049C21.7225 6.08749 21.8905 6.81349 21.9405 7.87849C21.9875 8.94449 22.0005 9.28349 22.0005 12.0005C22.0005 14.7175 21.9905 15.0565 21.9405 16.1225C21.8905 17.1875 21.7225 17.9125 21.4755 18.5505C21.2252 19.2183 20.8316 19.8231 20.3225 20.3225C19.8225 20.8308 19.2178 21.2242 18.5505 21.4755C17.9135 21.7225 17.1875 21.8905 16.1225 21.9405C15.0565 21.9875 14.7175 22.0005 12.0005 22.0005C9.28349 22.0005 8.94449 21.9905 7.87849 21.9405C6.81349 21.8905 6.08849 21.7225 5.45049 21.4755C4.78281 21.225 4.17802 20.8314 3.67849 20.3225C3.16989 19.8227 2.77642 19.218 2.52549 18.5505C2.27749 17.9135 2.11049 17.1875 2.06049 16.1225C2.01349 15.0565 2.00049 14.7175 2.00049 12.0005C2.00049 9.28349 2.01049 8.94449 2.06049 7.87849C2.11049 6.81249 2.27749 6.08849 2.52549 5.45049C2.77572 4.78267 3.16929 4.17781 3.67849 3.67849C4.17816 3.16972 4.78292 2.77622 5.45049 2.52549C6.08849 2.27749 6.81249 2.11049 7.87849 2.06049C8.94449 2.01349 9.28349 2.00049 12.0005 2.00049Z" fill="#FF6C0B"/>
</g>
<defs>
<clipPath id="clip0_535_68">
<rect width="24" height="24" fill="white"/>
</clipPath>
</defs>
</svg>
