<svg width="24" height="24" viewBox="0 0 24 24" fill="none" xmlns="http://www.w3.org/2000/svg">
<g id="Icon" clip-path="url(#clip0_535_71)">
<path id="Vector" d="M21.5435 6.49751C22.0005 8.27951 22.0005 11.9995 22.0005 11.9995C22.0005 11.9995 22.0005 15.7195 21.5435 17.5015C21.2895 18.4865 20.5465 19.2615 19.6055 19.5235C17.8965 19.9995 12.0005 19.9995 12.0005 19.9995C12.0005 19.9995 6.10749 19.9995 4.39549 19.5235C3.45049 19.2575 2.70849 18.4835 2.45749 17.5015C2.00049 15.7195 2.00049 11.9995 2.00049 11.9995C2.00049 11.9995 2.00049 8.27951 2.45749 6.49751C2.71149 5.51251 3.45449 4.73751 4.39549 4.47551C6.10749 3.99951 12.0005 3.99951 12.0005 3.99951C12.0005 3.99951 17.8965 3.99951 19.6055 4.47551C20.5505 4.74151 21.2925 5.51551 21.5435 6.49751ZM10.0005 15.4995L16.0005 11.9995L10.0005 8.49951V15.4995Z" fill="#FF6C0B"/>
</g>
<defs>
<clipPath id="clip0_535_71">
<rect width="24" height="24" fill="white"/>
</clipPath>
</defs>
</svg>
