<svg xmlns="http://www.w3.org/2000/svg" width="163.89" height="55.995" viewBox="0 0 163.89 55.995">
  <g id="footer-logo" transform="translate(0 -0.843)">
    <path id="Path_1" data-name="Path 1" d="M23.1,1.251h5.4a17.765,17.765,0,0,1,6.311.8,6.441,6.441,0,0,1,3.056,2.612A8.052,8.052,0,0,1,38.98,8.994a7.225,7.225,0,0,1-1.469,4.642,7.579,7.579,0,0,1-3.98,2.574,23.011,23.011,0,0,1-5.375.415V27.914H23.1Zm5.058,10.435h1.63a8.965,8.965,0,0,0,2.672-.272,2.408,2.408,0,0,0,1.184-.9,2.657,2.657,0,0,0,.428-1.529,2.422,2.422,0,0,0-1.209-2.259A6.918,6.918,0,0,0,29.6,6.19H28.156ZM42.252,8.2H46.53V10.7a5.319,5.319,0,0,1,1.823-2.228,4.408,4.408,0,0,1,2.492-.761,4.59,4.59,0,0,1,2.008.507l-1.537,4.271a3.354,3.354,0,0,0-1.426-.433,2.255,2.255,0,0,0-1.921,1.411q-.791,1.411-.787,5.533l.019.959v7.953H42.252Zm22.341-.483A10.528,10.528,0,0,1,69.857,9.1a10.183,10.183,0,0,1,5.232,8.931A10.31,10.31,0,0,1,73.7,23.241a10.035,10.035,0,0,1-3.794,3.788A10.543,10.543,0,0,1,64.612,28.4a9.893,9.893,0,0,1-7.265-3.008,9.97,9.97,0,0,1-3.013-7.316,9.926,9.926,0,0,1,3.4-7.687A9.97,9.97,0,0,1,64.594,7.712Zm.075,4.642a5.116,5.116,0,0,0-3.85,1.6,5.686,5.686,0,0,0-1.537,4.1A5.77,5.77,0,0,0,60.8,22.2a5.1,5.1,0,0,0,3.85,1.591,5.168,5.168,0,0,0,3.875-1.609,5.724,5.724,0,0,0,1.543-4.134,5.71,5.71,0,0,0-1.519-4.116A5.148,5.148,0,0,0,64.668,12.354Z"/>
    <path id="Path_2" data-name="Path 2" d="M77.215,3.851v-2.6H91.832v2.6H85.881V27.914H83.166V3.851ZM94.951,8.2H97.48v9.2a19.593,19.593,0,0,0,.366,4.636,5.152,5.152,0,0,0,2.083,2.859,6.354,6.354,0,0,0,3.67,1.052,6.226,6.226,0,0,0,3.614-1.021,5.242,5.242,0,0,0,2.046-2.692,18.925,18.925,0,0,0,.384-4.833V8.2h2.6v9.667A15.153,15.153,0,0,1,111.291,24a7.2,7.2,0,0,1-2.87,3.231,9.073,9.073,0,0,1-4.8,1.17,9.172,9.172,0,0,1-4.823-1.17A7.169,7.169,0,0,1,95.9,23.972a15.808,15.808,0,0,1-.954-6.288ZM120.088.843h2.529V8.2h4.017v2.191h-4.017V27.914h-2.529V10.386h-3.46V8.2h3.46Zm19.774,6.87a9.816,9.816,0,0,1,7.576,3.293,10.2,10.2,0,0,1,2.733,7.1,10.19,10.19,0,0,1-2.888,7.2,10.5,10.5,0,0,1-14.865,0,10.191,10.191,0,0,1-2.889-7.2,10.176,10.176,0,0,1,2.733-7.086A9.814,9.814,0,0,1,139.862,7.713ZM139.85,10.2a7.338,7.338,0,0,0-5.443,2.327,7.773,7.773,0,0,0-2.275,5.638,8.01,8.01,0,0,0,1.036,3.973,7.366,7.366,0,0,0,2.808,2.841,7.988,7.988,0,0,0,7.749,0,7.38,7.38,0,0,0,2.808-2.841,8.019,8.019,0,0,0,1.035-3.973,7.76,7.76,0,0,0-2.287-5.638A7.331,7.331,0,0,0,139.85,10.2ZM153.885,8.2h2.6V11.08a8.949,8.949,0,0,1,2.455-2.538,4.937,4.937,0,0,1,2.691-.829,4.66,4.66,0,0,1,2.256.668l-1.327,2.129a3.559,3.559,0,0,0-1.345-.347,3.691,3.691,0,0,0-2.455,1.04,6.631,6.631,0,0,0-1.8,3.237,30.83,30.83,0,0,0-.471,6.808v6.666h-2.6Z" fill="#f60"/>
    <path id="Path_3" data-name="Path 3" d="M73.415,39.09a2.447,2.447,0,0,0-.967-1.315,2.859,2.859,0,0,0-1.68-.5,3.009,3.009,0,0,0-1.819.569,3.177,3.177,0,0,0-.908,1.25Zm2.464,1.931H67.929a2.68,2.68,0,0,0,.918,1.68,2.864,2.864,0,0,0,1.9.622,3.275,3.275,0,0,0,2.378-.975l2.077.981a4.943,4.943,0,0,1-1.863,1.637,5.836,5.836,0,0,1-2.579.529,5.091,5.091,0,0,1-3.772-1.461,4.964,4.964,0,0,1-1.457-3.655,5.128,5.128,0,0,1,1.457-3.738,4.888,4.888,0,0,1,3.652-1.489,5.093,5.093,0,0,1,3.791,1.483,5.343,5.343,0,0,1,1.46,3.918Z"/>
    <path id="Path_4" data-name="Path 4" d="M54.832,35.4h2.474V36.41a5.994,5.994,0,0,1,1.528-.981,3.74,3.74,0,0,1,1.4-.276,3.4,3.4,0,0,1,2.5,1.021,3.517,3.517,0,0,1,.862,2.572v6.508H61.137V40.944a10.875,10.875,0,0,0-.158-2.34,1.608,1.608,0,0,0-.552-.882,1.559,1.559,0,0,0-.973-.3,1.832,1.832,0,0,0-1.292.5,2.683,2.683,0,0,0-.747,1.386,11.35,11.35,0,0,0-.108,2v3.949H54.832Z"/>
    <path id="Path_5" data-name="Path 5" d="M50.114,35.4h2.474v9.86H50.114Z"/>
    <path id="Path_6" data-name="Path 6" d="M51.357,31.347a1.518,1.518,0,0,1,1.116.47,1.6,1.6,0,0,1,.006,2.259,1.5,1.5,0,0,1-1.107.464,1.519,1.519,0,0,1-1.125-.473,1.573,1.573,0,0,1-.468-1.151,1.575,1.575,0,0,1,1.578-1.569Z"/>
    <path id="Path_7" data-name="Path 7" d="M45.657,31.588H48.13V45.255H45.657Z"/>
    <path id="Path_8" data-name="Path 8" d="M34.755,35.4h2.474V36.41a5.994,5.994,0,0,1,1.528-.981,3.74,3.74,0,0,1,1.4-.276,3.4,3.4,0,0,1,2.5,1.021,3.517,3.517,0,0,1,.862,2.572v6.508H41.06V40.944A10.884,10.884,0,0,0,40.9,38.6a1.609,1.609,0,0,0-.552-.882,1.559,1.559,0,0,0-.973-.3,1.832,1.832,0,0,0-1.292.5,2.683,2.683,0,0,0-.747,1.386,11.35,11.35,0,0,0-.108,2v3.949H34.755Z"/>
    <path id="Path_9" data-name="Path 9" d="M25.682,31.521A7.068,7.068,0,1,1,18.6,38.589,7.073,7.073,0,0,1,25.682,31.521Zm0,2.547a4.521,4.521,0,1,1-4.528,4.521A4.524,4.524,0,0,1,25.682,34.068Z" fill-rule="evenodd"/>
    <path id="Path_10" data-name="Path 10" d="M25.66,41.144a2.534,2.534,0,1,0-2.538-2.534A2.536,2.536,0,0,0,25.66,41.144Z" fill="#f60"/>
    <path id="Path_11" data-name="Path 11" d="M7.642,56.837a25.609,25.609,0,0,1-.153-36.346l4.461,4.244A19.465,19.465,0,0,0,12.1,52.592ZM21.133,44a7.06,7.06,0,0,1-.163-10.689l1.856,1.766A4.516,4.516,0,0,0,23,42.23Zm-6.522,6.2a16.018,16.018,0,0,1-.154-23.089l4.036,3.84a10.464,10.464,0,0,0,.158,15.407Z" fill="#f60" fill-rule="evenodd"/>
  </g>
</svg>
