<svg width="41" height="40" viewBox="0 0 41 40" fill="none" xmlns="http://www.w3.org/2000/svg">
<g id="gridicons:play">
<path id="Vector" d="M20.1569 3.33337C16.8606 3.33337 13.6382 4.31086 10.8974 6.14221C8.15659 7.97357 6.02038 10.5765 4.75892 13.622C3.49746 16.6674 3.1674 20.0185 3.81049 23.2515C4.45357 26.4846 6.04092 29.4543 8.3718 31.7852C10.7027 34.116 13.6724 35.7034 16.9054 36.3465C20.1384 36.9896 23.4895 36.6595 26.535 35.398C29.5804 34.1366 32.1834 32.0004 34.0147 29.2595C35.8461 26.5187 36.8236 23.2964 36.8236 20C36.8236 17.8113 36.3925 15.6441 35.5549 13.622C34.7173 11.5999 33.4897 9.76257 31.942 8.21493C30.3944 6.66728 28.5571 5.43963 26.535 4.60205C24.5129 3.76447 22.3456 3.33337 20.1569 3.33337ZM16.8236 27.5V12.5L26.8236 20L16.8236 27.5Z" fill="white"/>
</g>
</svg>
