<svg width="16" height="15" viewBox="0 0 16 15" fill="none" xmlns="http://www.w3.org/2000/svg">
<path id="Vector" d="M6.85292 0.697967C6.95856 0.488471 7.12206 0.31207 7.3249 0.188721C7.52774 0.0653725 7.76184 0 8.0007 0C8.23956 0 8.47365 0.0653725 8.6765 0.188721C8.87934 0.31207 9.04283 0.488471 9.14847 0.697967L10.9273 4.22087L14.9042 4.78559C15.1406 4.81916 15.3626 4.91677 15.5453 5.06737C15.7279 5.21798 15.8638 5.41556 15.9375 5.63776C16.0112 5.85996 16.0199 6.09791 15.9625 6.32468C15.9052 6.55145 15.784 6.75799 15.6128 6.92092L12.735 9.66321L13.4148 13.5365C13.4553 13.7666 13.4291 14.0031 13.3393 14.2194C13.2495 14.4357 13.0996 14.6231 12.9065 14.7605C12.7135 14.8978 12.485 14.9796 12.2469 14.9967C12.0088 15.0137 11.7706 14.9653 11.5592 14.8568L7.9999 13.0265L4.44219 14.8568C4.23077 14.9653 3.99256 15.0137 3.75447 14.9967C3.51639 14.9796 3.28791 14.8978 3.09488 14.7605C2.90184 14.6231 2.75194 14.4357 2.66211 14.2194C2.57228 14.0031 2.54611 13.7666 2.58655 13.5365L3.26482 9.66321L0.386977 6.92092C0.215751 6.75788 0.0946301 6.55122 0.0373298 6.32434C-0.0199705 6.09745 -0.0111604 5.85941 0.0627626 5.63717C0.136686 5.41492 0.272767 5.21736 0.455597 5.06686C0.638426 4.91636 0.860698 4.81892 1.09724 4.78559L5.07407 4.22243L6.85132 0.697967H6.85292Z" fill="#E08923"/>
</svg>
