<svg width="30" height="29" viewBox="0 0 30 29" fill="none" xmlns="http://www.w3.org/2000/svg">
<g id="icon-park-outline:check-one">
<g id="Group">
<path id="Vector" d="M14.6571 26.5833C16.2442 26.5854 17.816 26.2737 19.2823 25.6664C20.7486 25.059 22.0804 24.1678 23.2012 23.0441C24.3249 21.9233 25.2161 20.5915 25.8235 19.1252C26.4308 17.6589 26.7425 16.0871 26.7404 14.5C26.7424 12.9129 26.4308 11.341 25.8234 9.87473C25.2161 8.40844 24.3249 7.07664 23.2012 5.95584C22.0804 4.83211 20.7486 3.94095 19.2823 3.33357C17.816 2.72619 16.2442 2.41458 14.6571 2.41664C13.07 2.41461 11.4981 2.72624 10.0318 3.33362C8.56555 3.94099 7.23374 4.83214 6.11295 5.95584C4.98924 7.07664 4.0981 8.40844 3.49072 9.87473C2.88335 11.341 2.57172 12.9129 2.57374 14.5C2.57168 16.0871 2.8833 17.6589 3.49068 19.1252C4.09805 20.5915 4.98922 21.9233 6.11295 23.0441C7.23374 24.1678 8.56555 25.0589 10.0318 25.6663C11.4981 26.2737 13.07 26.5853 14.6571 26.5833Z" stroke="#22AE25" stroke-width="2" stroke-linejoin="round"/>
<path id="Vector_2" d="M9.82373 14.5L13.4487 18.125L20.6987 10.875" stroke="#22AE25" stroke-width="2" stroke-linecap="round" stroke-linejoin="round"/>
</g>
</g>
</svg>
