<svg width="17" height="16" viewBox="0 0 17 16" fill="none" xmlns="http://www.w3.org/2000/svg">
<g id="world 1" clip-path="url(#clip0_60_342)">
<g id="Group">
<path id="Vector" d="M14.8018 3.54872L14.5624 3.62461L13.2876 3.73818L12.9276 4.31317L12.6663 4.23016L11.6518 3.31547L11.5046 2.83978L11.3075 2.33253L10.6699 1.76059L9.91763 1.6134L9.90032 1.95769L10.6373 2.67681L10.9978 3.10156L10.5924 3.31343L10.2624 3.21615L9.7679 3.00989L9.78471 2.61111L9.13587 2.34424L8.92043 3.28185L8.2665 3.43006L8.33118 3.9531L9.18323 4.1171L9.33042 3.28134L10.0338 3.38524L10.3607 3.57673H10.8853L11.2443 4.29586L12.1962 5.26148L12.1264 5.63683L11.3589 5.53905L10.0327 6.20877L9.07781 7.35417L8.95354 7.86143H8.61078L7.97213 7.56706L7.35181 7.86143L7.50612 8.51587L7.77605 8.20469L8.25071 8.18992L8.21761 8.77765L8.61078 8.89275L9.00345 9.3338L9.64465 9.15351L10.377 9.26912L11.2275 9.49779L11.6523 9.5477L12.3724 10.3651L13.7623 11.1825L12.8634 12.8999L11.9146 13.3409L11.5545 14.3223L10.1814 15.2391L10.0353 15.7677C13.5453 14.9223 16.1565 11.7692 16.1565 7.99945C16.1555 6.3529 15.6564 4.82043 14.8018 3.54872Z" fill="#2C2C2C" fill-opacity="0.5"/>
<path id="Vector_2" d="M9.07719 12.1809L8.49456 11.1006L9.02932 9.9863L8.49456 9.82638L7.8941 9.22338L6.56383 8.92493L6.12227 8.00107V8.54958H5.92772L4.78129 6.99521V5.71841L3.94096 4.35198L2.60661 4.58982H1.7077L1.25545 4.29341L1.83248 3.83606L1.25697 3.96899C0.563316 5.1536 0.158936 6.52819 0.158936 8.00056C0.158936 12.4177 3.73979 16.0001 8.15741 16.0001C8.49762 16.0001 8.8312 15.97 9.16123 15.9303L9.0777 14.9611C9.0777 14.9611 9.4449 13.5218 9.4449 13.4729C9.4444 13.4235 9.07719 12.1809 9.07719 12.1809Z" fill="#2C2C2C" fill-opacity="0.5"/>
<path id="Vector_3" d="M3.13114 2.57958L4.55207 2.38146L5.20702 2.02241L5.94397 2.23478L7.12146 2.1696L7.52482 1.53552L8.11306 1.63229L9.54163 1.49834L9.93531 1.06443L10.4904 0.693659L11.2758 0.811816L11.562 0.768526C10.5276 0.28164 9.37662 0 8.15686 0C5.67405 0 3.45403 1.13165 1.98828 2.90858H1.99236L3.13114 2.57958ZM8.49503 0.795518L9.31194 0.345811L9.83651 0.648841L9.07715 1.22689L8.35192 1.29972L8.02546 1.08785L8.49503 0.795518ZM6.07537 0.861217L6.43595 1.01146L6.90807 0.861217L7.16526 1.30685L6.07537 1.59307L5.55131 1.28648C5.55131 1.28648 6.06366 0.956455 6.07537 0.861217Z" fill="#2C2C2C" fill-opacity="0.5"/>
</g>
</g>
<defs>
<clipPath id="clip0_60_342">
<rect width="16" height="16" fill="white" transform="translate(0.156982)"/>
</clipPath>
</defs>
</svg>
