<svg width="24" height="24" viewBox="0 0 24 24" fill="none" xmlns="http://www.w3.org/2000/svg">
<g id="Icon" clip-path="url(#clip0_687_18)">
<path id="Vector" d="M21.5434 6.49751C22.0004 8.27951 22.0004 11.9995 22.0004 11.9995C22.0004 11.9995 22.0004 15.7195 21.5434 17.5015C21.2894 18.4865 20.5464 19.2615 19.6054 19.5235C17.8964 19.9995 12.0004 19.9995 12.0004 19.9995C12.0004 19.9995 6.10737 19.9995 4.39537 19.5235C3.45037 19.2575 2.70837 18.4835 2.45737 17.5015C2.00037 15.7195 2.00037 11.9995 2.00037 11.9995C2.00037 11.9995 2.00037 8.27951 2.45737 6.49751C2.71137 5.51251 3.45437 4.73751 4.39537 4.47551C6.10737 3.99951 12.0004 3.99951 12.0004 3.99951C12.0004 3.99951 17.8964 3.99951 19.6054 4.47551C20.5504 4.74151 21.2924 5.51551 21.5434 6.49751ZM10.0004 15.4995L16.0004 11.9995L10.0004 8.49951V15.4995Z" fill="#FF6C0B"/>
</g>
<defs>
<clipPath id="clip0_687_18">
<rect width="24" height="24" fill="white"/>
</clipPath>
</defs>
</svg>
