<svg width="177" height="45" viewBox="0 0 177 45" fill="none" xmlns="http://www.w3.org/2000/svg">
<path d="M0 0.660156H6.78403C10.4527 0.660156 13.0932 1.09071 14.7131 1.96126C16.3334 2.8322 17.6186 4.2434 18.5531 6.18503C19.488 8.12666 19.9552 10.4587 19.9552 13.1809C19.9552 16.1936 19.3399 18.6955 18.1091 20.6875C16.8863 22.679 15.2196 24.0702 13.1088 24.8507C11.8704 25.3013 9.61913 25.5215 6.35563 25.5215V43.7771H0V0.660156ZM6.35563 17.5348H8.4043C10.0163 17.5348 11.1302 17.3846 11.7611 17.0944C12.3921 16.794 12.8829 16.3135 13.2489 15.6329C13.6072 14.9522 13.7862 14.1316 13.7862 13.1608C13.7862 11.4893 13.2801 10.2684 12.2676 9.50798C11.5353 8.93744 10.1644 8.64686 8.17052 8.64686H6.35563V17.5348ZM24.0676 11.89H29.4418V15.9431C30.0184 14.362 30.7815 13.1608 31.732 12.3402C32.69 11.5196 33.7335 11.1091 34.863 11.1091C35.6653 11.1091 36.5065 11.3792 37.3865 11.9297L35.4551 18.8359C34.7308 18.3652 34.131 18.1352 33.6634 18.1352C32.7133 18.1352 31.9033 18.8957 31.2491 20.417C30.5869 21.9383 30.2598 24.9211 30.2598 29.3646L30.283 30.9162V43.7771H24.0676V11.89ZM52.1388 11.1091C54.4834 11.1091 56.6875 11.8597 58.7515 13.361C60.8234 14.8622 62.4281 16.8943 63.5885 19.4662C64.7491 22.0483 65.3256 24.8208 65.3256 27.8032C65.3256 30.8061 64.7415 33.6085 63.5808 36.2205C62.4125 38.8329 60.8234 40.8744 58.8139 42.3458C56.7968 43.8172 54.5847 44.5576 52.1621 44.5576C48.5947 44.5576 45.5494 42.9364 43.0335 39.6937C40.5099 36.4407 39.2483 32.4973 39.2483 27.8634C39.2483 22.8894 40.6736 18.7458 43.5243 15.4327C46.0246 12.5506 48.8909 11.1091 52.1388 11.1091ZM52.2325 18.6157C50.2927 18.6157 48.6804 19.4764 47.3955 21.1979C46.1103 22.9291 45.4637 25.131 45.4637 27.8233C45.4637 30.5859 46.1024 32.8276 47.372 34.5392C48.6416 36.2508 50.2539 37.1115 52.2089 37.1115C54.1563 37.1115 55.7763 36.2406 57.0771 34.5093C58.3699 32.7776 59.0165 30.5458 59.0165 27.8233C59.0165 25.0909 58.3779 22.8792 57.1083 21.1676C55.8387 19.4662 54.2108 18.6157 52.2325 18.6157Z" fill="black"/>
<path d="M67.9973 4.8643V0.66058H86.3635V4.8643H78.886V43.7775H75.4744V4.8643H67.9973ZM90.2815 11.8904H93.4593V26.7731C93.4593 30.4059 93.6151 32.8984 93.9189 34.2695C94.3706 36.2209 95.2506 37.7623 96.5358 38.8931C97.8211 40.0244 99.3633 40.5949 101.147 40.5949C102.931 40.5949 104.442 40.0444 105.688 38.9434C106.926 37.8323 107.791 36.3912 108.258 34.5895C108.578 33.3584 108.741 30.7562 108.741 26.7731V11.8904H112.012V27.5237C112.012 31.9173 111.615 35.2202 110.813 37.4422C110.019 39.674 108.811 41.4155 107.207 42.6667C105.602 43.9277 103.593 44.558 101.17 44.558C98.7479 44.558 96.7305 43.9277 95.1105 42.6667C93.4905 41.4155 92.2754 39.654 91.4807 37.4021C90.6787 35.1502 90.2815 31.7573 90.2815 27.2335V11.8904ZM121.866 0H125.043V11.8904H130.091V15.4332H125.043V43.7775H121.866V15.4332H117.519V11.8904H121.866V0ZM146.712 11.1095C150.537 11.1095 153.715 12.8813 156.23 16.4342C158.52 19.6668 159.665 23.5001 159.665 27.924C159.665 32.3675 158.458 36.2512 156.036 39.5737C153.621 42.8967 150.505 44.558 146.712 44.558C142.896 44.558 139.773 42.8967 137.358 39.5737C134.936 36.2512 133.728 32.3675 133.728 27.924C133.728 23.5201 134.873 19.697 137.163 16.4641C139.679 12.8911 142.865 11.1095 146.712 11.1095ZM146.697 15.1331C144.041 15.1331 141.766 16.3839 139.858 18.8961C137.95 21.4082 137 24.4508 137 28.014C137 30.306 137.436 32.4478 138.3 34.4393C139.173 36.4211 140.349 37.9526 141.829 39.0335C143.301 40.1144 144.929 40.6547 146.697 40.6547C148.465 40.6547 150.093 40.1144 151.565 39.0335C153.045 37.9526 154.221 36.4211 155.093 34.4393C155.958 32.4478 156.394 30.306 156.394 28.014C156.394 24.4508 155.436 21.4082 153.52 18.8961C151.612 16.3839 149.337 15.1331 146.697 15.1331ZM164.331 11.8904H167.602V16.5542C168.576 14.7128 169.604 13.3515 170.687 12.4507C171.769 11.5601 172.899 11.1095 174.067 11.1095C174.955 11.1095 175.897 11.4697 176.902 12.1904L175.236 15.6333C174.566 15.2633 174.005 15.073 173.545 15.073C172.478 15.073 171.45 15.6333 170.461 16.7543C169.472 17.8753 168.716 19.627 168.194 21.989C167.797 23.8005 167.602 27.4734 167.602 32.9982V43.7775H164.331V11.8904Z" fill="#FF6600"/>
</svg>
