<svg width="81" height="80" viewBox="0 0 81 80" fill="none" xmlns="http://www.w3.org/2000/svg">
<path fill-rule="evenodd" clip-rule="evenodd" d="M40.5 3C60.8993 3 77.5 19.5976 77.5 40C77.5 60.4024 60.8993 77 40.5 77C20.1007 77 3.5 60.4055 3.5 40C3.5 19.5945 20.1007 3 40.5 3ZM40.5 70.2752C57.1932 70.2752 70.7722 56.6932 70.7722 40.0031C70.7722 23.3068 57.1932 9.72783 40.5 9.72783C23.8099 9.72783 10.2278 23.3068 10.2278 40.0031C10.2278 56.6932 23.8099 70.2752 40.5 70.2752ZM40.5 16.4557C53.4808 16.4557 64.0443 27.0192 64.0443 40.0031C64.0443 52.9839 53.4808 63.5474 40.5 63.5474C27.5192 63.5474 16.9557 52.9808 16.9557 40C16.9557 27.0161 27.5161 16.4557 40.5 16.4557ZM40.5 56.8196C44.959 56.8155 49.2343 55.0426 52.3876 51.8898C55.541 48.7371 57.3147 44.4621 57.3196 40.0031C57.3155 35.5435 55.5421 31.2677 52.3887 28.1144C49.2353 24.961 44.9596 23.1876 40.5 23.1835C36.0404 23.1876 31.7647 24.961 28.6113 28.1144C25.4579 31.2677 23.6845 35.5435 23.6804 40.0031C23.6853 44.4621 25.459 48.7371 28.6124 51.8898C31.7657 55.0426 36.041 56.8155 40.5 56.8196ZM40.5 29.9113C43.1752 29.9138 45.7402 30.9774 47.6322 32.8688C49.5241 34.7601 50.5885 37.3248 50.5917 40C50.5885 42.6755 49.5242 45.2405 47.6323 47.1323C45.7405 49.0242 43.1755 50.0885 40.5 50.0917C37.825 50.0885 35.2605 49.0246 33.3687 47.1334C31.477 45.2422 30.4123 42.678 30.4083 40.0031C30.4107 37.3273 31.4747 34.7619 33.3668 32.8698C35.2588 30.9778 37.8243 29.9138 40.5 29.9113ZM40.5 43.3639C42.3531 43.3639 43.8608 41.8531 43.8608 40.0031C43.8089 39.1469 43.4323 38.3429 42.8077 37.755C42.1831 37.1671 41.3577 36.8398 40.5 36.8398C39.6423 36.8398 38.8169 37.1671 38.1923 37.755C37.5677 38.3429 37.1911 39.1469 37.1392 40.0031C37.1392 41.8531 38.6469 43.3639 40.5 43.3639Z" fill="#FF6C0B"/>
</svg>
