<svg width="50" height="50" viewBox="0 0 50 50" fill="none" xmlns="http://www.w3.org/2000/svg">
<circle cx="25" cy="25" r="24" fill="white" fill-opacity="0.2"/>
<circle cx="25" cy="25" r="24.5" stroke="#FF6C0B" stroke-opacity="0.2"/>
<path d="M36.7399 33.379C36.2863 34.4272 35.7493 35.3918 35.1269 36.279C34.2789 37.4882 33.5845 38.3251 33.0493 38.7901C32.2197 39.553 31.3308 39.9436 30.379 39.9659C29.6957 39.9659 28.8717 39.7715 27.9124 39.3771C26.9501 38.9844 26.0656 38.7901 25.257 38.7901C24.4089 38.7901 23.4993 38.9844 22.5263 39.3771C21.5519 39.7715 20.7669 39.977 20.1668 39.9975C19.254 40.0361 18.3442 39.6343 17.4361 38.7901C16.8565 38.2844 16.1315 37.4177 15.263 36.1901C14.3312 34.879 13.5651 33.3587 12.965 31.6254C12.3222 29.7532 12 27.9403 12 26.1852C12 24.1747 12.4344 22.4407 13.3046 20.9876C13.9885 19.8204 14.8982 18.8997 16.0369 18.2238C17.1756 17.5479 18.4059 17.2035 19.7309 17.1814C20.4558 17.1814 21.4065 17.4057 22.588 17.8464C23.7661 18.2886 24.5225 18.5129 24.8542 18.5129C25.1021 18.5129 25.9425 18.2507 27.3671 17.7279C28.7143 17.2431 29.8513 17.0424 30.7827 17.1214C33.3067 17.3251 35.203 18.3201 36.4639 20.1126C34.2067 21.4804 33.09 23.396 33.1123 25.8535C33.1326 27.7677 33.8271 29.3607 35.1919 30.6254C35.8102 31.2125 36.5011 31.6661 37.2695 31.9884C37.103 32.4717 36.9269 32.9346 36.7399 33.379ZM30.9512 10.6002C30.9512 12.1005 30.4031 13.5014 29.3105 14.798C27.9921 16.3394 26.3973 17.2301 24.6679 17.0896C24.6459 16.9096 24.6331 16.7202 24.6331 16.5211C24.6331 15.0808 25.2601 13.5393 26.3736 12.279C26.9295 11.6409 27.6365 11.1103 28.4939 10.687C29.3494 10.2701 30.1587 10.0395 30.9197 10C30.942 10.2006 30.9512 10.4012 30.9512 10.6001V10.6002Z" fill="black"/>
</svg>
