<svg width="50" height="50" viewBox="0 0 50 50" fill="none" xmlns="http://www.w3.org/2000/svg">
<circle cx="25" cy="25" r="24" fill="white" fill-opacity="0.2"/>
<circle cx="25" cy="25" r="24.5" stroke="#FF6C0B" stroke-opacity="0.2"/>
<g clip-path="url(#clip0_92_32)">
<path d="M39.9842 25.2806C39.9842 24.0515 39.8821 23.1546 39.6613 22.2245H25.2988V27.772H33.7292C33.5593 29.1506 32.6415 31.2268 30.6018 32.6219L30.5732 32.8076L35.1144 36.2453L35.429 36.276C38.3184 33.6683 39.9842 29.8315 39.9842 25.2806Z" fill="#4285F4"/>
<path d="M25.2984 39.8969C29.4286 39.8969 32.8959 38.5681 35.4285 36.2761L30.6014 32.6219C29.3097 33.5022 27.5759 34.1168 25.2984 34.1168C21.2531 34.1168 17.8198 31.5092 16.5959 27.9049L16.4165 27.9198L11.6946 31.4908L11.6328 31.6586C14.1483 36.5417 19.3154 39.8969 25.2984 39.8969Z" fill="#34A853"/>
<path d="M16.5967 27.9049C16.2738 26.9748 16.0869 25.9782 16.0869 24.9484C16.0869 23.9186 16.2738 22.9221 16.5797 21.992L16.5712 21.7939L11.7901 18.1655L11.6336 18.2382C10.5969 20.2646 10.002 22.5401 10.002 24.9484C10.002 27.3568 10.5969 29.6322 11.6336 31.6586L16.5967 27.9049Z" fill="#FBBC05"/>
<path d="M25.2984 15.78C28.1708 15.78 30.1085 16.9925 31.2133 18.0058L35.5305 13.8866C32.8791 11.4782 29.4286 10 25.2984 10C19.3154 10 14.1483 13.3551 11.6328 18.2382L16.5789 21.992C17.8198 18.3877 21.2532 15.78 25.2984 15.78Z" fill="#EB4335"/>
</g>
<defs>
<clipPath id="clip0_92_32">
<rect width="30" height="30" fill="white" transform="translate(10 10)"/>
</clipPath>
</defs>
</svg>
