<svg width="44" height="44" viewBox="0 0 44 44" fill="none" xmlns="http://www.w3.org/2000/svg">
<path d="M0 22C0 9.84974 9.84974 0 22 0C34.1503 0 44 9.84974 44 22C44 34.1503 34.1503 44 22 44C9.84974 44 0 34.1503 0 22Z" fill="#FF6C0B" fill-opacity="0.15"/>
<path d="M20.6356 14.9894L20.6468 15.0001L20.6583 15.0104C21.0273 15.3404 21.505 15.5228 22 15.5228C22.495 15.5228 22.9727 15.3404 23.3417 15.0104L23.3535 14.9998L23.365 14.9888C24.2116 14.1818 25.8293 13 28 13C29.5801 13 30.7855 13.6184 31.6199 14.6803C32.4752 15.7688 33 17.4045 33 19.5C33 20.7417 32.4893 22.1505 31.5891 23.6176C30.696 25.073 29.467 26.5082 28.1492 27.7806C26.8327 29.0516 25.4532 30.1356 24.2806 30.895C23.6935 31.2752 23.1737 31.5641 22.7514 31.754C22.297 31.9584 22.0599 32 22 32C21.9401 32 21.703 31.9584 21.2486 31.754C20.8263 31.5641 20.3065 31.2752 19.7194 30.895C18.5468 30.1356 17.1673 29.0516 15.8508 27.7806C14.533 26.5082 13.304 25.073 12.4109 23.6176C11.5107 22.1505 11 20.7417 11 19.5C11 17.4045 11.5248 15.7688 12.3801 14.6803C13.2145 13.6184 14.4199 13 16 13C18.169 13 19.7883 14.183 20.6356 14.9894Z" stroke="#FF6C0B" stroke-width="2"/>
</svg>
