<svg width="24" height="24" viewBox="0 0 24 24" fill="none" xmlns="http://www.w3.org/2000/svg">
<g clip-path="url(#clip0_4_2091)">
<path d="M12.0003 9.00049C11.2047 9.00049 10.4416 9.31656 9.879 9.87917C9.31639 10.4418 9.00032 11.2048 9.00032 12.0005C9.00032 12.7961 9.31639 13.5592 9.879 14.1218C10.4416 14.6844 11.2047 15.0005 12.0003 15.0005C12.796 15.0005 13.559 14.6844 14.1216 14.1218C14.6842 13.5592 15.0003 12.7961 15.0003 12.0005C15.0003 11.2048 14.6842 10.4418 14.1216 9.87917C13.559 9.31656 12.796 9.00049 12.0003 9.00049ZM12.0003 7.00049C13.3264 7.00049 14.5982 7.52727 15.5359 8.46495C16.4735 9.40264 17.0003 10.6744 17.0003 12.0005C17.0003 13.3266 16.4735 14.5983 15.5359 15.536C14.5982 16.4737 13.3264 17.0005 12.0003 17.0005C10.6742 17.0005 9.40247 16.4737 8.46479 15.536C7.5271 14.5983 7.00032 13.3266 7.00032 12.0005C7.00032 10.6744 7.5271 9.40264 8.46479 8.46495C9.40247 7.52727 10.6742 7.00049 12.0003 7.00049ZM18.5003 6.75049C18.5003 7.08201 18.3686 7.39995 18.1342 7.63437C17.8998 7.86879 17.5818 8.00049 17.2503 8.00049C16.9188 8.00049 16.6009 7.86879 16.3664 7.63437C16.132 7.39995 16.0003 7.08201 16.0003 6.75049C16.0003 6.41897 16.132 6.10103 16.3664 5.8666C16.6009 5.63218 16.9188 5.50049 17.2503 5.50049C17.5818 5.50049 17.8998 5.63218 18.1342 5.8666C18.3686 6.10103 18.5003 6.41897 18.5003 6.75049ZM12.0003 4.00049C9.52632 4.00049 9.12232 4.00749 7.97132 4.05849C7.18732 4.09549 6.66132 4.20049 6.17332 4.39049C5.73932 4.55849 5.42632 4.75949 5.09332 5.09349C4.78033 5.39589 4.53967 5.76507 4.38932 6.17349C4.19932 6.66349 4.09432 7.18849 4.05832 7.97149C4.00632 9.07549 4.00032 9.46149 4.00032 12.0005C4.00032 14.4745 4.00732 14.8785 4.05832 16.0295C4.09532 16.8125 4.20032 17.3395 4.38932 17.8265C4.55932 18.2615 4.75932 18.5745 5.09132 18.9065C5.42832 19.2425 5.74132 19.4435 6.17132 19.6095C6.66532 19.8005 7.19132 19.9065 7.97132 19.9425C9.07532 19.9945 9.46132 20.0005 12.0003 20.0005C14.4743 20.0005 14.8783 19.9935 16.0293 19.9425C16.8113 19.9055 17.3383 19.8005 17.8263 19.6115C18.2593 19.4425 18.5743 19.2415 18.9063 18.9095C19.2433 18.5725 19.4443 18.2595 19.6103 17.8295C19.8003 17.3365 19.9063 16.8095 19.9423 16.0295C19.9943 14.9255 20.0003 14.5395 20.0003 12.0005C20.0003 9.52649 19.9933 9.12249 19.9423 7.97149C19.9053 7.18949 19.8003 6.66149 19.6103 6.17349C19.4596 5.76549 19.2194 5.39645 18.9073 5.09349C18.6051 4.78033 18.2358 4.53965 17.8273 4.38949C17.3373 4.19949 16.8113 4.09449 16.0293 4.05849C14.9253 4.00649 14.5393 4.00049 12.0003 4.00049ZM12.0003 2.00049C14.7173 2.00049 15.0563 2.01049 16.1223 2.06049C17.1873 2.11049 17.9123 2.27749 18.5503 2.52549C19.2103 2.77949 19.7663 3.12349 20.3223 3.67849C20.8308 4.17838 21.2243 4.78308 21.4753 5.45049C21.7223 6.08749 21.8903 6.81349 21.9403 7.87849C21.9873 8.94449 22.0003 9.28349 22.0003 12.0005C22.0003 14.7175 21.9903 15.0565 21.9403 16.1225C21.8903 17.1875 21.7223 17.9125 21.4753 18.5505C21.225 19.2183 20.8314 19.8231 20.3223 20.3225C19.8223 20.8308 19.2176 21.2242 18.5503 21.4755C17.9133 21.7225 17.1873 21.8905 16.1223 21.9405C15.0563 21.9875 14.7173 22.0005 12.0003 22.0005C9.28332 22.0005 8.94432 21.9905 7.87832 21.9405C6.81332 21.8905 6.08832 21.7225 5.45032 21.4755C4.78265 21.225 4.17785 20.8314 3.67832 20.3225C3.16973 19.8227 2.77625 19.218 2.52532 18.5505C2.27732 17.9135 2.11032 17.1875 2.06032 16.1225C2.01332 15.0565 2.00032 14.7175 2.00032 12.0005C2.00032 9.28349 2.01032 8.94449 2.06032 7.87849C2.11032 6.81249 2.27732 6.08849 2.52532 5.45049C2.77556 4.78267 3.16912 4.17781 3.67832 3.67849C4.17799 3.16972 4.78275 2.77622 5.45032 2.52549C6.08832 2.27749 6.81232 2.11049 7.87832 2.06049C8.94432 2.01349 9.28332 2.00049 12.0003 2.00049Z" fill="#FF6C0B"/>
</g>
<defs>
<clipPath id="clip0_4_2091">
<rect width="24" height="24" fill="white"/>
</clipPath>
</defs>
</svg>
