<svg width="81" height="80" viewBox="0 0 81 80" fill="none" xmlns="http://www.w3.org/2000/svg">
<path d="M53 22.5836L42.4702 27.0953C41.8464 27.3639 41.1824 27.5006 40.5 27.5006C39.8176 27.5006 39.1536 27.3639 38.5273 27.0941L28 22.5825V27.5006C28 28.4478 28.5347 29.3133 29.3818 29.7369L39.3818 34.7369C39.7334 34.9127 40.1167 35.0006 40.5 35.0006C40.8833 35.0006 41.2666 34.9127 41.6182 34.7369L51.6182 29.7369C52.4653 29.3133 53 28.4478 53 27.5006V22.5836Z" fill="#FF6C0B"/>
<path d="M58.9851 12.7032L41.4851 5.20325C40.8552 4.93225 40.1448 4.93225 39.5149 5.20325L22.0149 12.7032C21.0957 13.0963 20.5 14.0009 20.5 15.0006C20.5 16.0004 21.0957 16.9049 22.0149 17.298L39.5149 24.798C39.8298 24.9335 40.1643 25.0006 40.5 25.0006C40.8357 25.0006 41.1702 24.9335 41.4851 24.798L55.5 18.7917V32.5006C55.5 33.8812 56.6194 35.0006 58 35.0006C59.3806 35.0006 60.5 33.8812 60.5 32.5006V15.0006C60.5 14.0009 59.9043 13.0963 58.9851 12.7032Z" fill="#FF6C0B"/>
<path d="M56.75 37.5C50.7768 37.5 45.468 40.3026 42.0343 44.6539C44.2183 47.9921 45.5 51.9716 45.5 56.25C45.5 60.5284 44.2183 64.5079 42.0343 67.8461C45.468 72.1974 50.7768 75 56.75 75C67.1054 75 75.5 66.6054 75.5 56.25C75.5 45.8946 67.1054 37.5 56.75 37.5ZM65.3218 49.3933L57.8218 61.8933C57.624 62.2229 57.2847 62.4438 56.9026 62.4902C56.8513 62.4963 56.8 62.5 56.75 62.5C56.4204 62.5 56.1018 62.3694 55.8662 62.1338L50.8662 57.1338C50.3779 56.6455 50.3779 55.8545 50.8662 55.3662C51.3545 54.8779 52.1455 54.8779 52.6338 55.3662L56.5022 59.2346L63.1782 48.1067C63.5322 47.5146 64.3013 47.3218 64.8933 47.6782C65.4854 48.0334 65.677 48.8013 65.3218 49.3933Z" fill="#FF6C0B"/>
<path d="M39.2905 57.755C38.5977 57.755 38.0371 57.194 38.0371 56.5008C38.0371 55.8075 38.5977 55.2466 39.2905 55.2466H43C42.4977 45.7438 34.9667 38.1262 25.5034 37.5V41.1994C25.5034 41.8927 24.9428 42.4536 24.25 42.4536C23.5572 42.4536 22.9966 41.8927 22.9966 41.1994V37.5C13.5333 38.1262 6.0023 45.7438 5.5 55.2466H9.20949C9.90227 55.2466 10.4629 55.8075 10.4629 56.5008C10.4629 57.194 9.90227 57.755 9.20949 57.755H5.52524C6.26056 67.0246 13.6997 74.3848 22.9966 75V71.3006C22.9966 70.6073 23.5572 70.0464 24.25 70.0464C24.9428 70.0464 25.5034 70.6073 25.5034 71.3006V75C34.8003 74.3848 42.2394 67.0246 42.9748 57.755H39.2905ZM32.7726 46.9675L25.2523 57.0013C25.0161 57.3173 24.644 57.5034 24.2498 57.5034H16.7296C16.0368 57.5034 15.4762 56.9425 15.4762 56.2492C15.4762 55.556 16.0368 54.995 16.7296 54.995H23.6232L30.7676 45.4635C31.1826 44.9086 31.9696 44.7984 32.5216 45.2124C33.0761 45.6276 33.1887 46.4139 32.7726 46.9675Z" fill="#FF6C0B"/>
</svg>
