<svg width="80" height="80" viewBox="0 0 80 80" fill="none" xmlns="http://www.w3.org/2000/svg">
<g clip-path="url(#clip0_99_446)">
<mask id="mask0_99_446" style="mask-type:luminance" maskUnits="userSpaceOnUse" x="0" y="0" width="80" height="80">
<path d="M0 0H80V80H0V0Z" fill="white"/>
</mask>
<g mask="url(#mask0_99_446)">
<path d="M76.7288 30.0001C76.786 30.2132 76.8851 30.4128 77.0201 30.5874C77.1552 30.7619 77.3235 30.9078 77.5155 31.0168C77.7074 31.1257 77.919 31.1954 78.1381 31.2219C78.3572 31.2483 78.5794 31.231 78.7917 31.1709C79.004 31.1108 79.2023 31.0091 79.375 30.8718C79.5478 30.7344 79.6915 30.5641 79.7978 30.3708C79.9042 30.1774 79.9711 29.9649 79.9946 29.7454C80.0182 29.526 79.9979 29.3041 79.935 29.0926C77.2541 20.6167 71.9319 13.2207 64.7465 7.98622C57.5612 2.75173 48.8897 -0.0467119 40 8.93179e-05C17.9087 8.93179e-05 0 17.9088 0 40.0001C0 62.0913 17.9087 80.0001 40 80.0001C40.4421 80.0001 40.8661 79.8245 41.1787 79.5119C41.4913 79.1993 41.6669 78.7753 41.6669 78.3332C41.6669 77.8911 41.4913 77.4672 41.1787 77.1546C40.8661 76.842 40.4421 76.6663 40 76.6663C19.75 76.6663 3.33375 60.2501 3.33375 40.0001C3.33375 19.7501 19.75 3.33384 40 3.33384C48.1661 3.27835 56.1359 5.83652 62.7442 10.6344C69.3526 15.4322 74.2528 22.2181 76.7288 30.0001Z" fill="#FF6C0B"/>
<path d="M38.3349 23.3337V38.3337H29.9999C29.5578 38.3337 29.1338 38.5094 28.8212 38.822C28.5086 39.1346 28.333 39.5585 28.333 40.0006C28.333 40.4427 28.5086 40.8667 28.8212 41.1793C29.1338 41.4919 29.5578 41.6675 29.9999 41.6675H39.9999C40.2191 41.668 40.4362 41.6252 40.6388 41.5416C40.8414 41.458 41.0255 41.3352 41.1805 41.1803C41.3356 41.0253 41.4585 40.8413 41.5423 40.6388C41.626 40.4363 41.669 40.2192 41.6686 40V23.3337C41.6686 22.8917 41.493 22.4677 41.1804 22.1551C40.8678 21.8425 40.4438 21.6669 40.0018 21.6669C39.5597 21.6669 39.1357 21.8425 38.8231 22.1551C38.5105 22.4677 38.3349 22.8917 38.3349 23.3337Z" fill="#FF6C0B"/>
<path d="M71.6662 56.6675H66.6662V46.6675H75C75.4421 46.6675 75.866 46.4919 76.1786 46.1793C76.4912 45.8667 76.6669 45.4427 76.6669 45.0006C76.6669 44.5585 76.4912 44.1345 76.1786 43.8219C75.866 43.5093 75.4421 43.3337 75 43.3337H66.6662V38.3337C66.6662 37.8918 66.4907 37.468 66.1782 37.1555C65.8657 36.843 65.4419 36.6675 65 36.6675C64.5581 36.6675 64.1343 36.843 63.8218 37.1555C63.5093 37.468 63.3337 37.8918 63.3337 38.3337V43.3337H58.3337C56.1413 43.3606 54.0478 44.2504 52.507 45.8102C50.9661 47.37 50.1021 49.4743 50.1021 51.6669C50.1021 53.8594 50.9661 55.9637 52.507 57.5235C54.0478 59.0834 56.1413 59.9731 58.3337 60H63.3337V70H55C54.5579 70 54.1339 70.1756 53.8213 70.4882C53.5087 70.8008 53.3331 71.2248 53.3331 71.6669C53.3331 72.1089 53.5087 72.5329 53.8213 72.8455C54.1339 73.1581 54.5579 73.3337 55 73.3337H63.3337V78.3337C63.3337 78.7756 63.5093 79.1995 63.8218 79.5119C64.1343 79.8244 64.5581 80 65 80C65.4419 80 65.8657 79.8244 66.1782 79.5119C66.4907 79.1995 66.6662 78.7756 66.6662 78.3337V73.3337H71.6662C73.8586 73.3069 75.9521 72.4171 77.493 70.8573C79.0339 69.2974 79.8979 67.1932 79.8979 65.0006C79.8979 62.808 79.0339 60.7038 77.493 59.1439C75.9521 57.5841 73.8586 56.6943 71.6662 56.6675ZM58.3337 56.6675C57.0077 56.6675 55.7359 56.1407 54.7982 55.203C53.8605 54.2653 53.3337 52.9936 53.3337 51.6675C53.3337 50.3414 53.8605 49.0696 54.7982 48.1319C55.7359 47.1943 57.0077 46.6675 58.3337 46.6675H63.3337V56.6675H58.3337ZM71.6662 70H66.6662V60H71.6662C72.9923 60 74.2641 60.5268 75.2018 61.4644C76.1395 62.4021 76.6662 63.6739 76.6662 65C76.6662 66.3261 76.1395 67.5978 75.2018 68.5355C74.2641 69.4732 72.9923 70 71.6662 70Z" fill="#FF6C0B"/>
</g>
</g>
<defs>
<clipPath id="clip0_99_446">
<rect width="80" height="80" fill="white"/>
</clipPath>
</defs>
</svg>
