<svg width="16" height="10" viewBox="0 0 16 10" fill="none" xmlns="http://www.w3.org/2000/svg">
<g clip-path="url(#clip0_79_2061)">
<path d="M14.8178 -2.4732e-05L14.9068 0.00397527C15.0969 -0.0139168 15.2881 0.0229654 15.4578 0.110264C15.6276 0.197563 15.7688 0.331631 15.8649 0.496627C15.9609 0.661624 16.0076 0.850654 15.9997 1.04139C15.9917 1.23212 15.9293 1.41658 15.8198 1.57298L15.8178 4.99998C15.8175 5.25485 15.7199 5.50001 15.545 5.68534C15.37 5.87068 15.1309 5.98221 14.8764 5.99715C14.622 6.01208 14.3714 5.9293 14.176 5.76571C13.9805 5.60212 13.8549 5.37007 13.8248 5.11698L13.8178 4.99998V3.68498L9.67781 8.02398C9.50467 8.20536 9.2697 8.31507 9.01947 8.33137C8.76924 8.34767 8.52202 8.26937 8.32681 8.11198L8.23081 8.02398L5.77281 5.44798L1.72281 9.68997C1.55475 9.86597 1.32828 9.97464 1.08583 9.99563C0.843392 10.0166 0.601616 9.94847 0.405812 9.80398L0.309812 9.72398C0.133552 9.55586 0.0247114 9.32919 0.00372158 9.08652C-0.0172683 8.84385 0.0510355 8.60186 0.195812 8.40598L0.275812 8.30998L5.04881 3.30998C5.222 3.12831 5.45718 3.01842 5.70764 3.00212C5.9581 2.98582 6.20553 3.0643 6.40081 3.22198L6.49581 3.30998L8.95381 5.88498L12.6618 1.99998H10.9998C10.7549 1.99994 10.5185 1.91002 10.3354 1.74726C10.1524 1.5845 10.0355 1.36023 10.0068 1.11698L9.99981 0.999975C9.99984 0.755042 10.0898 0.518638 10.2525 0.335603C10.4153 0.152568 10.6396 0.0356325 10.8828 0.00697527L10.9998 -2.4732e-05H14.8178Z" fill="#22AE25"/>
</g>
<defs>
<clipPath id="clip0_79_2061">
<rect width="16" height="10" fill="white"/>
</clipPath>
</defs>
</svg>
