
<svg width="16" height="18" viewBox="0 0 16 18" fill="none" xmlns="http://www.w3.org/2000/svg">
<path opacity="0.3" d="M3.89474 17.8823C2.22807 18.2355 1.08772 17.794 0.473684 16.5576C-0.0526316 15.233 -0.140351 13.5552 0.210526 11.5241C0.561404 9.49305 1.35088 7.41782 2.57895 5.29845C3.80702 3.09076 5.42982 1.32462 7.44737 0C7.71053 0 7.84211 0 7.84211 0C6.87719 1.23631 6.13158 2.42846 5.60526 3.57645C5.07895 4.63614 4.81579 5.87245 4.81579 7.28536C4.81579 8.25675 4.94737 9.31644 5.21053 10.4644C5.5614 11.5241 5.7807 12.5838 5.86842 13.6435C6.04386 14.6149 6 15.498 5.73684 16.2927C5.5614 17.0875 4.94737 17.6173 3.89474 17.8823ZM12.0526 17.8823C10.386 18.2355 9.24561 17.794 8.63158 16.5576C8.10526 15.233 8.01754 13.5552 8.36842 11.5241C8.7193 9.49305 9.50877 7.41782 10.7368 5.29845C12.0526 3.09076 13.6754 1.32462 15.6053 0C15.8684 0 16 0 16 0C15.0351 1.23631 14.2895 2.42846 13.7632 3.57645C13.2368 4.63614 12.9737 5.87245 12.9737 7.28536C12.9737 8.25675 13.1053 9.31644 13.3684 10.4644C13.7193 11.5241 13.9386 12.5838 14.0263 13.6435C14.2018 14.6149 14.1579 15.498 13.8947 16.2927C13.7193 17.0875 13.1053 17.6173 12.0526 17.8823Z" fill="#FF6C0B"/>
</svg>
