<svg width="20" height="20" viewBox="0 0 20 20" fill="none" xmlns="http://www.w3.org/2000/svg">
<path d="M13.75 7.375C13.4185 7.375 13.1005 7.5067 12.8661 7.74112C12.6317 7.97554 12.5 8.29348 12.5 8.625C12.5 8.95652 12.6317 9.27446 12.8661 9.50888C13.1005 9.7433 13.4185 9.875 13.75 9.875C14.0815 9.875 14.3995 9.7433 14.6339 9.50888C14.8683 9.27446 15 8.95652 15 8.625C15 8.29348 14.8683 7.97554 14.6339 7.74112C14.3995 7.5067 14.0815 7.375 13.75 7.375ZM10 7.375C9.66848 7.375 9.35051 7.5067 9.11609 7.74112C8.88167 7.97554 8.75 8.29348 8.75 8.625C8.75 8.95652 8.88167 9.27446 9.11609 9.50888C9.35051 9.7433 9.66848 9.875 10 9.875C10.3315 9.875 10.6495 9.7433 10.8839 9.50888C11.1183 9.27446 11.25 8.95652 11.25 8.625C11.25 8.29348 11.1183 7.97554 10.8839 7.74112C10.6495 7.5067 10.3315 7.375 10 7.375ZM6.25 7.375C5.91848 7.375 5.60051 7.5067 5.36609 7.74112C5.13167 7.97554 5 8.29348 5 8.625C5 8.95652 5.13167 9.27446 5.36609 9.50888C5.60051 9.7433 5.91848 9.875 6.25 9.875C6.58152 9.875 6.89949 9.7433 7.13391 9.50888C7.36833 9.27446 7.5 8.95652 7.5 8.625C7.5 8.29348 7.36833 7.97554 7.13391 7.74112C6.89949 7.5067 6.58152 7.375 6.25 7.375ZM15 2.375C16.75 2.375 18.125 3.75 18.125 5.5V11.75C18.125 13.5 16.75 14.875 15 14.875H14.5352C14.2008 14.875 13.8886 15.0421 13.7031 15.3203L12.9822 16.4017C12.6147 16.953 11.8222 17.0009 11.3909 16.4977L10.2993 15.2242C10.1093 15.0026 9.83199 14.875 9.54006 14.875H5C4.5885 14.879 4.18033 14.8009 3.79938 14.6453C3.41842 14.4897 3.07236 14.2596 2.78137 13.9686C2.49039 13.6777 2.26036 13.3316 2.10474 12.9506C1.94911 12.5697 1.87099 12.1615 1.875 11.75V5.5C1.875 3.75 3.25 2.375 5 2.375H15ZM14.7031 17.1953C14.8886 16.9171 15.2019 16.7572 15.5343 16.7214C18.0356 16.4526 20 14.3196 20 11.75V5.5C20 2.75 17.75 0.5 15 0.5H5C2.25 0.5 0 2.75 0 5.5V11.75C0 14.5 2.25 16.75 5 16.75H8.67964C8.96312 16.75 9.23329 16.8703 9.42293 17.081L11.6388 19.5431C12.0754 20.0282 12.8521 19.9718 13.2141 19.4288L14.7031 17.1953Z" fill="#2C2C2C" fill-opacity="0.3"/>
</svg>
