<svg width="16" height="16" viewBox="0 0 16 16" fill="none" xmlns="http://www.w3.org/2000/svg">
<path d="M6.85292 1.19797C6.95856 0.988471 7.12206 0.81207 7.3249 0.688721C7.52774 0.565372 7.76184 0.5 8.0007 0.5C8.23956 0.5 8.47365 0.565372 8.6765 0.688721C8.87934 0.81207 9.04283 0.988471 9.14847 1.19797L10.9273 4.72087L14.9042 5.28559C15.1406 5.31916 15.3626 5.41677 15.5453 5.56737C15.7279 5.71798 15.8638 5.91556 15.9375 6.13776C16.0112 6.35996 16.0199 6.59791 15.9625 6.82468C15.9052 7.05145 15.784 7.25799 15.6128 7.42092L12.735 10.1632L13.4148 14.0365C13.4553 14.2666 13.4291 14.5031 13.3393 14.7194C13.2495 14.9357 13.0996 15.1231 12.9065 15.2605C12.7135 15.3978 12.485 15.4796 12.2469 15.4967C12.0088 15.5137 11.7706 15.4653 11.5592 15.3568L7.9999 13.5265L4.44219 15.3568C4.23077 15.4653 3.99256 15.5137 3.75447 15.4967C3.51639 15.4796 3.28791 15.3978 3.09488 15.2605C2.90184 15.1231 2.75194 14.9357 2.66211 14.7194C2.57228 14.5031 2.54611 14.2666 2.58655 14.0365L3.26482 10.1632L0.386977 7.42092C0.215751 7.25788 0.0946301 7.05122 0.0373298 6.82434C-0.0199705 6.59745 -0.0111604 6.35941 0.0627626 6.13717C0.136686 5.91492 0.272767 5.71736 0.455597 5.56686C0.638426 5.41636 0.860698 5.31892 1.09724 5.28559L5.07407 4.72243L6.85132 1.19797H6.85292Z" fill="#E08923"/>
</svg>
