<svg width="40" height="40" viewBox="0 0 40 40" fill="none" xmlns="http://www.w3.org/2000/svg">
<path d="M8.95106 23.0932L21.3793 4.09996C21.8853 3.32831 22.8055 3.92944 22.7001 4.9629L21.5269 16.3861H30.4854C31.1476 16.3861 31.4961 17.4781 31.0497 18.1602L18.6189 37.15C18.1129 37.9217 17.1928 37.3206 17.2994 36.2871L18.4738 24.8639H9.51531C9.36714 24.8646 9.22204 24.8054 9.09772 24.6934C8.97341 24.5815 8.87527 24.4216 8.81529 24.2334C8.75531 24.0453 8.73609 23.8369 8.75998 23.6338C8.78387 23.4307 8.84984 23.2417 8.94982 23.0898L8.95106 23.0932Z" fill="#FAE4D7"/>
<path fill-rule="evenodd" clip-rule="evenodd" d="M20.82 7.62199L11.4311 22.0912H18.5068C18.7208 22.0908 18.9324 22.155 19.1271 22.2793C19.3219 22.4036 19.4953 22.5851 19.6356 22.8116C19.7758 23.0381 19.8797 23.3042 19.94 23.5919C20.0004 23.8796 20.0159 24.1821 19.9854 24.4789L19.18 32.378L28.5689 17.9088H21.4932C21.2792 17.9092 21.0676 17.845 20.8729 17.7207C20.6781 17.5964 20.5047 17.4149 20.3644 17.1884C20.2242 16.9619 20.1203 16.6958 20.06 16.4081C19.9996 16.1204 19.9841 15.8179 20.0146 15.5211L20.82 7.62199ZM20.2462 2.28739C21.731 -8.27312e-05 24.4312 1.78265 24.1207 4.84168L23.2145 13.7247H30.2562C32.2007 13.7247 33.2208 16.9571 31.9132 18.9727L19.7538 37.7126C18.269 40.0001 15.5688 38.2174 15.8793 35.1583L16.7855 26.2752H9.74382C7.79933 26.2752 6.77917 23.0429 8.08682 21.0273L20.2462 2.28739Z" fill="#FF6C0B"/>
</svg>
