<svg width="20" height="21" viewBox="0 0 20 21" fill="none" xmlns="http://www.w3.org/2000/svg">
<g clip-path="url(#clip0_79_2112)">
<path d="M10 20.5C4.5 20.5 0 16 0 10.5C0 5 4.5 0.5 10 0.5C15.5 0.5 20 5 20 10.5C20 16 15.5 20.5 10 20.5ZM10 2.375C5.5 2.375 1.875 6 1.875 10.5C1.875 15 5.5 18.625 10 18.625C14.5 18.625 18.125 15 18.125 10.5C18.125 6 14.5 2.375 10 2.375Z" fill="#2C2C2C" fill-opacity="0.3"/>
<path d="M10 14.25C12.0711 14.25 13.75 12.5711 13.75 10.5C13.75 8.42893 12.0711 6.75 10 6.75C7.92893 6.75 6.25 8.42893 6.25 10.5C6.25 12.5711 7.92893 14.25 10 14.25Z" fill="#2C2C2C" fill-opacity="0.3"/>
</g>
<defs>
<clipPath id="clip0_79_2112">
<rect width="20" height="20" fill="white" transform="translate(0 0.5)"/>
</clipPath>
</defs>
</svg>
