<svg width="24" height="24" viewBox="0 0 24 24" fill="none" xmlns="http://www.w3.org/2000/svg">
<g clip-path="url(#clip0_4_2088)">
<path d="M22.1618 5.65593C21.3984 5.99362 20.5888 6.2154 19.7598 6.31393C20.6336 5.79136 21.2875 4.96894 21.5998 3.99993C20.7798 4.48793 19.8808 4.82993 18.9438 5.01493C18.3144 4.34151 17.4802 3.89489 16.5708 3.74451C15.6614 3.59413 14.7278 3.74842 13.9151 4.18338C13.1024 4.61834 12.4562 5.30961 12.077 6.14972C11.6977 6.98983 11.6066 7.93171 11.8178 8.82893C10.1549 8.74558 8.52817 8.31345 7.04313 7.56059C5.55808 6.80773 4.24797 5.75097 3.19784 4.45893C2.82613 5.09738 2.63079 5.82315 2.63184 6.56193C2.63184 8.01193 3.36984 9.29293 4.49184 10.0429C3.82785 10.022 3.17847 9.84271 2.59784 9.51993V9.57193C2.59804 10.5376 2.93221 11.4735 3.54369 12.221C4.15517 12.9684 5.00632 13.4814 5.95284 13.6729C5.33645 13.84 4.69015 13.8646 4.06284 13.7449C4.32971 14.5762 4.84985 15.3031 5.55043 15.824C6.25102 16.3449 7.09697 16.6337 7.96984 16.6499C7.10232 17.3313 6.10902 17.8349 5.04672 18.1321C3.98442 18.4293 2.87397 18.5142 1.77884 18.3819C3.69054 19.6114 5.91594 20.264 8.18884 20.2619C15.8818 20.2619 20.0888 13.8889 20.0888 8.36193C20.0888 8.18193 20.0838 7.99993 20.0758 7.82193C20.8947 7.23009 21.6014 6.49695 22.1628 5.65693L22.1618 5.65593Z" fill="#FF6C0B"/>
</g>
<defs>
<clipPath id="clip0_4_2088">
<rect width="24" height="24" fill="white"/>
</clipPath>
</defs>
</svg>
