<svg width="16" height="15" viewBox="0 0 16 15" fill="none" xmlns="http://www.w3.org/2000/svg">
<g clip-path="url(#clip0_80_2764)">
<path d="M14.0132 7.75L14.9214 8.84741C15.0093 8.95597 15.0776 9.07397 15.1265 9.20142C15.1753 9.32886 15.1997 9.46338 15.1997 9.60498C15.1997 9.74658 15.1777 9.8811 15.1338 10.0085C15.0898 10.136 15.0264 10.2516 14.9434 10.3555C14.8604 10.4593 14.7603 10.549 14.6431 10.6245C14.5259 10.7 14.3989 10.7567 14.2622 10.7944L12.8633 11.1697C12.873 11.4104 12.8853 11.6535 12.8999 11.8989C12.9146 12.1444 12.9243 12.3898 12.9292 12.6353C12.9292 12.8052 12.8975 12.9633 12.834 13.1096C12.7705 13.2559 12.6802 13.3834 12.563 13.4919C12.4458 13.6005 12.3115 13.6878 12.1602 13.7539C12.0088 13.82 11.8428 13.853 11.6621 13.853C11.5107 13.853 11.3618 13.8271 11.2153 13.7751L9.86035 13.2795L9.06201 14.4478C8.94482 14.6224 8.79346 14.7569 8.60791 14.8513C8.42236 14.9457 8.21973 14.9953 8 15C7.78516 15 7.58496 14.9528 7.39941 14.8584C7.21387 14.764 7.06006 14.6271 6.93799 14.4478L6.13965 13.2795L4.78467 13.7751C4.63818 13.8271 4.48926 13.853 4.33789 13.853C4.16211 13.853 3.99854 13.8223 3.84717 13.761C3.6958 13.6996 3.56152 13.6123 3.44434 13.499C3.32715 13.3857 3.23682 13.2559 3.17334 13.1096C3.10986 12.9633 3.07568 12.8052 3.0708 12.6353C3.0708 12.3898 3.07812 12.1444 3.09277 11.8989C3.10742 11.6535 3.12207 11.4104 3.13672 11.1697L1.73779 10.7944C1.59619 10.7567 1.46924 10.7 1.35693 10.6245C1.24463 10.549 1.14697 10.4593 1.06396 10.3555C0.980957 10.2516 0.91748 10.136 0.873535 10.0085C0.82959 9.8811 0.805176 9.74658 0.800293 9.60498C0.800293 9.4681 0.824707 9.33594 0.873535 9.2085C0.922363 9.08105 0.990723 8.96069 1.07861 8.84741L1.98682 7.75L1.07861 6.65259C0.893066 6.43075 0.800293 6.17822 0.800293 5.89502C0.800293 5.75342 0.822266 5.6189 0.866211 5.49146C0.910156 5.36401 0.973633 5.24837 1.05664 5.14453C1.13965 5.04069 1.2373 4.95101 1.34961 4.87549C1.46191 4.79997 1.59131 4.74333 1.73779 4.70557L3.13672 4.33032C3.12695 4.0896 3.11475 3.84652 3.1001 3.60107C3.08545 3.35563 3.07568 3.11019 3.0708 2.86475C3.0708 2.69482 3.10254 2.5367 3.16602 2.39038C3.22949 2.24406 3.31982 2.11662 3.43701 2.00806C3.5542 1.8995 3.68848 1.81217 3.83984 1.74609C3.99121 1.68001 4.15723 1.64697 4.33789 1.64697C4.48926 1.64697 4.63818 1.67293 4.78467 1.72485L6.13965 2.22046L6.93799 1.05225C7.05518 0.877604 7.20654 0.743083 7.39209 0.648682C7.57764 0.554281 7.78027 0.50472 8 0.5C8.21484 0.5 8.41504 0.547201 8.60059 0.641602C8.78613 0.736003 8.93994 0.872884 9.06201 1.05225L9.86035 2.22046L11.2153 1.72485C11.3618 1.67293 11.5107 1.64697 11.6621 1.64697C11.8379 1.64697 12.0015 1.67765 12.1528 1.73901C12.3042 1.80037 12.4385 1.8877 12.5557 2.00098C12.6729 2.11426 12.7632 2.24406 12.8267 2.39038C12.8901 2.5367 12.9243 2.69482 12.9292 2.86475C12.9292 3.11019 12.9219 3.35563 12.9072 3.60107C12.8926 3.84652 12.8779 4.0896 12.8633 4.33032L14.2622 4.70557C14.3989 4.74333 14.5259 4.79997 14.6431 4.87549C14.7603 4.95101 14.8579 5.04069 14.936 5.14453C15.0142 5.24837 15.0776 5.36401 15.1265 5.49146C15.1753 5.6189 15.1997 5.75342 15.1997 5.89502C15.1997 6.17822 15.1069 6.43075 14.9214 6.65259L14.0132 7.75ZM7.0625 10.3625L11.23 6.34106L10.395 5.53394L7.0625 8.76245L5.60498 7.34644L4.77002 8.15356L7.0625 10.3625Z" fill="#22AE25"/>
</g>
<defs>
<clipPath id="clip0_80_2764">
<rect width="15" height="14.5" fill="white" transform="translate(0.5 0.5)"/>
</clipPath>
</defs>
</svg>
