<svg width="81" height="80" viewBox="0 0 81 80" fill="none" xmlns="http://www.w3.org/2000/svg">
<path d="M56.425 43.0469C49.3172 43.0469 43.5344 48.8297 43.5344 55.9375C43.5344 63.0453 49.3172 68.8281 56.425 68.8281C63.5328 68.8281 69.3156 63.0453 69.3156 55.9375C69.3156 48.8297 63.5313 43.0469 56.425 43.0469ZM53.9469 63.2844C53.725 63.5312 53.4078 63.6719 53.0766 63.6719H53.036C52.6906 63.6594 52.3672 63.4953 52.1547 63.2219L45.8594 55.1875C45.461 54.6781 45.55 53.9406 46.0594 53.5422C46.5688 53.1422 47.3047 53.2313 47.7047 53.7422L53.1406 60.6797L63.925 48.7234C64.3594 48.2437 65.1 48.2047 65.5797 48.6391C66.061 49.0719 66.0985 49.8125 65.6656 50.2938L53.9469 63.2844Z" fill="#FF6C0B"/>
<path d="M48.3141 68.8282H12.8281C12.1969 68.8282 11.7078 68.2845 11.7625 67.6563C13.0125 53.5923 25.4172 42.5142 40.4859 42.5142C42.9625 42.5142 45.4078 42.8126 47.7781 43.4017C43.8 46.1532 41.1891 50.7454 41.1891 55.9376C41.1906 61.3595 44.0359 66.1282 48.3141 68.8282Z" fill="#FF6C0B"/>
<path d="M50.7152 35.8846C56.3678 30.232 56.3678 21.0673 50.7152 15.4147C45.0626 9.76213 35.8979 9.76213 30.2453 15.4147C24.5927 21.0673 24.5927 30.232 30.2453 35.8846C35.8979 41.5372 45.0626 41.5372 50.7152 35.8846Z" fill="#FF6C0B"/>
</svg>
