<svg width="40" height="40" viewBox="0 0 40 40" fill="none" xmlns="http://www.w3.org/2000/svg">
<g clip-path="url(#clip0_79_2073)">
<path d="M36.0352 20L38.457 23.0273C38.6914 23.3268 38.8737 23.6523 39.0039 24.0039C39.1341 24.3555 39.1992 24.7266 39.1992 25.1172C39.1992 25.5078 39.1406 25.8789 39.0234 26.2305C38.9062 26.582 38.737 26.901 38.5156 27.1875C38.2943 27.474 38.0273 27.7214 37.7148 27.9297C37.4023 28.138 37.0638 28.2943 36.6992 28.3984L32.9688 29.4336C32.9948 30.0977 33.0273 30.7682 33.0664 31.4453C33.1055 32.1224 33.1315 32.7995 33.1445 33.4766C33.1445 33.9453 33.0599 34.3815 32.8906 34.7852C32.7214 35.1888 32.4805 35.5404 32.168 35.8398C31.8555 36.1393 31.4974 36.3802 31.0938 36.5625C30.6901 36.7448 30.2474 36.8359 29.7656 36.8359C29.362 36.8359 28.9648 36.7643 28.5742 36.6211L24.9609 35.2539L22.832 38.4766C22.5195 38.9583 22.1159 39.3294 21.6211 39.5898C21.1263 39.8503 20.5859 39.987 20 40C19.4271 40 18.8932 39.8698 18.3984 39.6094C17.9036 39.349 17.4935 38.9714 17.168 38.4766L15.0391 35.2539L11.4258 36.6211C11.0352 36.7643 10.638 36.8359 10.2344 36.8359C9.76562 36.8359 9.32943 36.7513 8.92578 36.582C8.52214 36.4128 8.16406 36.1719 7.85156 35.8594C7.53906 35.5469 7.29818 35.1888 7.12891 34.7852C6.95964 34.3815 6.86849 33.9453 6.85547 33.4766C6.85547 32.7995 6.875 32.1224 6.91406 31.4453C6.95312 30.7682 6.99219 30.0977 7.03125 29.4336L3.30078 28.3984C2.92318 28.2943 2.58464 28.138 2.28516 27.9297C1.98568 27.7214 1.72526 27.474 1.50391 27.1875C1.28255 26.901 1.11328 26.582 0.996094 26.2305C0.878906 25.8789 0.813802 25.5078 0.800781 25.1172C0.800781 24.7396 0.865885 24.375 0.996094 24.0234C1.1263 23.6719 1.30859 23.3398 1.54297 23.0273L3.96484 20L1.54297 16.9727C1.04818 16.3607 0.800781 15.6641 0.800781 14.8828C0.800781 14.4922 0.859375 14.1211 0.976562 13.7695C1.09375 13.418 1.26302 13.099 1.48438 12.8125C1.70573 12.526 1.96615 12.2786 2.26562 12.0703C2.5651 11.862 2.91016 11.7057 3.30078 11.6016L7.03125 10.5664C7.00521 9.90234 6.97266 9.23177 6.93359 8.55469C6.89453 7.8776 6.86849 7.20052 6.85547 6.52344C6.85547 6.05469 6.9401 5.61849 7.10938 5.21484C7.27865 4.8112 7.51953 4.45964 7.83203 4.16016C8.14453 3.86068 8.5026 3.61979 8.90625 3.4375C9.3099 3.25521 9.7526 3.16406 10.2344 3.16406C10.638 3.16406 11.0352 3.23568 11.4258 3.37891L15.0391 4.74609L17.168 1.52344C17.4805 1.04167 17.8841 0.670573 18.3789 0.410156C18.8737 0.14974 19.4141 0.0130208 20 0C20.5729 0 21.1068 0.130208 21.6016 0.390625C22.0964 0.651042 22.5065 1.02865 22.832 1.52344L24.9609 4.74609L28.5742 3.37891C28.9648 3.23568 29.362 3.16406 29.7656 3.16406C30.2344 3.16406 30.6706 3.2487 31.0742 3.41797C31.4779 3.58724 31.8359 3.82812 32.1484 4.14062C32.4609 4.45312 32.7018 4.8112 32.8711 5.21484C33.0404 5.61849 33.1315 6.05469 33.1445 6.52344C33.1445 7.20052 33.125 7.8776 33.0859 8.55469C33.0469 9.23177 33.0078 9.90234 32.9688 10.5664L36.6992 11.6016C37.0638 11.7057 37.4023 11.862 37.7148 12.0703C38.0273 12.2786 38.2878 12.526 38.4961 12.8125C38.7044 13.099 38.8737 13.418 39.0039 13.7695C39.1341 14.1211 39.1992 14.4922 39.1992 14.8828C39.1992 15.6641 38.9518 16.3607 38.457 16.9727L36.0352 20ZM17.5 27.207L28.6133 16.1133L26.3867 13.8867L17.5 22.793L13.6133 18.8867L11.3867 21.1133L17.5 27.207Z" fill="#BCBCBD"/>
</g>
<defs>
<clipPath id="clip0_79_2073">
<rect width="40" height="40" fill="white"/>
</clipPath>
</defs>
</svg>
