<svg width="24" height="24" viewBox="0 0 24 24" fill="none" xmlns="http://www.w3.org/2000/svg">
<g clip-path="url(#clip0_4_2094)">
<path d="M21.5433 6.49751C22.0003 8.27951 22.0003 11.9995 22.0003 11.9995C22.0003 11.9995 22.0003 15.7195 21.5433 17.5015C21.2893 18.4865 20.5463 19.2615 19.6053 19.5235C17.8963 19.9995 12.0003 19.9995 12.0003 19.9995C12.0003 19.9995 6.10732 19.9995 4.39532 19.5235C3.45032 19.2575 2.70832 18.4835 2.45732 17.5015C2.00032 15.7195 2.00032 11.9995 2.00032 11.9995C2.00032 11.9995 2.00032 8.27951 2.45732 6.49751C2.71132 5.51251 3.45432 4.73751 4.39532 4.47551C6.10732 3.99951 12.0003 3.99951 12.0003 3.99951C12.0003 3.99951 17.8963 3.99951 19.6053 4.47551C20.5503 4.74151 21.2923 5.51551 21.5433 6.49751ZM10.0003 15.4995L16.0003 11.9995L10.0003 8.49951V15.4995Z" fill="#FF6C0B"/>
</g>
<defs>
<clipPath id="clip0_4_2094">
<rect width="24" height="24" fill="white"/>
</clipPath>
</defs>
</svg>
